<svg width="20" height="21" viewBox="0 0 20 21" fill="none" xmlns="http://www.w3.org/2000/svg">
<path d="M9.16123 10.0543H0V0.884277H9.16123V10.0543ZM1.6143 2.48699V8.43553H7.54643V2.48699H1.6143Z" fill="black"/>
<path d="M10.8311 10.0453V0.884766H19.9998V10.0453H10.8311ZM12.4423 8.429H18.3885V2.50002H12.4423V8.429Z" fill="black"/>
<path d="M0.000976562 11.7153H9.1607V20.8844H0.000976562V11.7153ZM7.5474 19.2827V13.3341H1.61377V19.2827H7.5474Z" fill="black"/>
<path d="M14.4708 19.062H12.6949V20.8278H10.9004V11.7858H14.4994V13.5632H18.1426V11.7808H19.9386V17.1932H16.3336V15.4023H12.7039V17.2058H14.5075C14.5075 17.399 14.511 17.5707 14.507 17.7424C14.4964 18.1831 14.4819 18.6238 14.4693 19.0645L14.4718 19.0615L14.4708 19.062Z" fill="black"/>
<path d="M14.4683 19.0654C14.8332 19.0544 15.1986 19.0413 15.5635 19.0338C15.8045 19.0288 16.0454 19.0328 16.3044 19.0328V20.8257H14.5124C14.5124 20.3624 14.5154 19.9067 14.5104 19.4504C14.5089 19.3209 14.4853 19.1914 14.4713 19.0619L14.4683 19.0654Z" fill="black"/>
<path d="M18.1729 19.043H19.9417V20.8274H18.1729V19.043Z" fill="black"/>
<path d="M3.63525 6.41029V4.52197H5.52914V6.41029H3.63525Z" fill="black"/>
<path d="M16.3605 6.41624H14.4746V4.52441H16.3605V6.41624Z" fill="black"/>
<path d="M5.52804 17.2518H3.63867V15.3569H5.52804V17.2518Z" fill="black"/>
</svg>
