<svg width="18" height="23" viewBox="0 0 18 23" fill="none" xmlns="http://www.w3.org/2000/svg">
<path d="M9.24225 12.6694C8.98773 12.6702 8.78174 12.8763 8.78101 13.1307V18.758C8.78101 19.0127 8.98736 19.2193 9.24225 19.2193C9.49695 19.2193 9.70349 19.0127 9.70349 18.758V13.1307C9.70276 12.8763 9.49658 12.6702 9.24225 12.6694Z" fill="#45565C"/>
<path d="M12.1943 12.6694C11.9398 12.6702 11.7336 12.8763 11.7329 13.1307V18.758C11.7329 19.0127 11.9395 19.2193 12.1943 19.2193C12.449 19.2193 12.6556 19.0127 12.6556 18.758V13.1307C12.6548 12.8763 12.4487 12.6702 12.1943 12.6694Z" fill="#45565C"/>
<path d="M6.28985 12.6694C6.03534 12.6702 5.82934 12.8763 5.82861 13.1307V18.758C5.82861 19.0127 6.03497 19.2193 6.28985 19.2193C6.54455 19.2193 6.75109 19.0127 6.75109 18.758V13.1307C6.75036 12.8763 6.54418 12.6702 6.28985 12.6694Z" fill="#45565C"/>
<path d="M15.4043 3.24604H12.766V1.90387C12.766 1.63343 12.6585 1.37432 12.4673 1.18317C12.2762 0.992006 12.0169 0.884521 11.7466 0.884521H6.73757C6.46731 0.884521 6.20802 0.992006 6.01687 1.18317C5.82571 1.37433 5.7184 1.63343 5.71822 1.90387V3.25059H3.07986C2.41902 3.25077 1.7976 3.56498 1.40553 4.09692C1.0135 4.62904 0.897596 5.31567 1.09334 5.94703C1.28889 6.5782 1.77302 7.07882 2.39721 7.29576C2.38806 7.3289 2.38348 7.36296 2.3833 7.39739V19.9341C2.38366 20.5457 2.62664 21.1322 3.05914 21.5647C3.49164 21.9972 4.07811 22.2401 4.68969 22.2405H13.7994C14.411 22.2401 14.9975 21.9972 15.4299 21.5647C15.8622 21.1322 16.1054 20.5457 16.1056 19.9341V7.39739C16.1058 7.36296 16.1012 7.32891 16.0917 7.29576C16.7168 7.07805 17.2011 6.57632 17.3965 5.94407C17.5919 5.31182 17.4752 4.62426 17.0821 4.09176C16.689 3.55926 16.0661 3.24548 15.4043 3.24604ZM6.64528 1.90387C6.64564 1.8504 6.68886 1.80719 6.74214 1.80701H11.7512C11.8047 1.80719 11.8479 1.8504 11.8481 1.90387V3.25059H6.64494L6.64528 1.90387ZM13.7947 21.3181L4.68965 21.3179C4.32289 21.317 3.97153 21.1709 3.71222 20.9116C3.4529 20.6523 3.30682 20.301 3.30572 19.9342V7.41103H15.1829V19.9342C15.1807 20.3013 15.0337 20.6528 14.7737 20.9119C14.5137 21.1712 14.1618 21.3174 13.7947 21.3181ZM15.4045 6.48871H3.07968C2.66605 6.48871 2.28389 6.26807 2.07698 5.9099C1.87025 5.55157 1.87025 5.11026 2.07698 4.75214C2.28389 4.39398 2.66601 4.17314 3.07968 4.17314H15.4045C15.8182 4.17314 16.2003 4.39396 16.4072 4.75214C16.614 5.11029 16.614 5.55159 16.4072 5.9099C16.2003 6.26805 15.8182 6.48871 15.4045 6.48871Z" fill="#45565C"/>
<path d="M9.24225 12.6694C8.98773 12.6702 8.78174 12.8763 8.78101 13.1307V18.758C8.78101 19.0127 8.98736 19.2193 9.24225 19.2193C9.49695 19.2193 9.70349 19.0127 9.70349 18.758V13.1307C9.70276 12.8763 9.49658 12.6702 9.24225 12.6694Z" stroke="#45565C"/>
<path d="M12.1943 12.6694C11.9398 12.6702 11.7336 12.8763 11.7329 13.1307V18.758C11.7329 19.0127 11.9395 19.2193 12.1943 19.2193C12.449 19.2193 12.6556 19.0127 12.6556 18.758V13.1307C12.6548 12.8763 12.4487 12.6702 12.1943 12.6694Z" stroke="#45565C"/>
<path d="M6.28985 12.6694C6.03534 12.6702 5.82934 12.8763 5.82861 13.1307V18.758C5.82861 19.0127 6.03497 19.2193 6.28985 19.2193C6.54455 19.2193 6.75109 19.0127 6.75109 18.758V13.1307C6.75036 12.8763 6.54418 12.6702 6.28985 12.6694Z" stroke="#45565C"/>
<path d="M15.4043 3.24604H12.766V1.90387C12.766 1.63343 12.6585 1.37432 12.4673 1.18317C12.2762 0.992006 12.0169 0.884521 11.7466 0.884521H6.73757C6.46731 0.884521 6.20802 0.992006 6.01687 1.18317C5.82571 1.37433 5.7184 1.63343 5.71822 1.90387V3.25059H3.07986C2.41902 3.25077 1.7976 3.56498 1.40553 4.09692C1.0135 4.62904 0.897596 5.31567 1.09334 5.94703C1.28889 6.5782 1.77302 7.07882 2.39721 7.29576C2.38806 7.3289 2.38348 7.36296 2.3833 7.39739V19.9341C2.38366 20.5457 2.62664 21.1322 3.05914 21.5647C3.49164 21.9972 4.07811 22.2401 4.68969 22.2405H13.7994C14.411 22.2401 14.9975 21.9972 15.4299 21.5647C15.8622 21.1322 16.1054 20.5457 16.1056 19.9341V7.39739C16.1058 7.36296 16.1012 7.32891 16.0917 7.29576C16.7168 7.07805 17.2011 6.57632 17.3965 5.94407C17.5919 5.31182 17.4752 4.62426 17.0821 4.09176C16.689 3.55926 16.0661 3.24548 15.4043 3.24604ZM6.64528 1.90387C6.64564 1.8504 6.68886 1.80719 6.74214 1.80701H11.7512C11.8047 1.80719 11.8479 1.8504 11.8481 1.90387V3.25059H6.64494L6.64528 1.90387ZM13.7947 21.3181L4.68965 21.3179C4.32289 21.317 3.97153 21.1709 3.71222 20.9116C3.4529 20.6523 3.30682 20.301 3.30572 19.9342V7.41103H15.1829V19.9342C15.1807 20.3013 15.0337 20.6528 14.7737 20.9119C14.5137 21.1712 14.1618 21.3174 13.7947 21.3181ZM15.4045 6.48871H3.07968C2.66605 6.48871 2.28389 6.26807 2.07698 5.9099C1.87025 5.55157 1.87025 5.11026 2.07698 4.75214C2.28389 4.39398 2.66601 4.17314 3.07968 4.17314H15.4045C15.8182 4.17314 16.2003 4.39396 16.4072 4.75214C16.614 5.11029 16.614 5.55159 16.4072 5.9099C16.2003 6.26805 15.8182 6.48871 15.4045 6.48871Z" stroke="#45565C"/>
</svg>
