<svg width="40" height="40" viewBox="0 0 40 40" fill="none" xmlns="http://www.w3.org/2000/svg">
<path d="M5.90847 37.5155H32.3585C34.484 37.5155 35.8222 35.2718 34.838 33.4221C33.4214 30.7454 31.0206 28.738 28.1079 27.8722L24.6835 26.8489C23.5028 26.4946 22.8729 25.2352 23.306 24.0938C23.3847 23.8576 23.5028 23.6214 23.6603 23.4639L26.1004 20.7087C27.7142 18.8587 28.5012 16.4186 28.226 13.9781L27.8323 10.6325C27.5174 8.0742 26.1004 5.79116 23.9355 4.41358L23.8961 4.37421C21.0229 2.52421 17.2836 2.56359 14.45 4.49231C12.482 5.83052 11.1438 7.91669 10.7895 10.2782L10.2384 13.7813C9.84467 16.3396 10.5927 18.8982 12.3245 20.8269L14.6469 23.4246C14.8044 23.6214 14.9225 23.8183 15.0013 24.0545C15.3949 25.1958 14.7651 26.4552 13.6237 26.8096L10.1993 27.8723C7.28673 28.7381 4.84618 30.7455 3.42931 33.4222C2.4454 35.2719 3.82299 37.5156 5.90884 37.5156L5.90847 37.5155Z" fill="#BFBFBF"/>
<path d="M33.58 20.62H30.42V18.98H33.58V15.72H35.42V18.98H38.58V20.62H35.42V23.88H33.58V20.62Z" fill="#45565C"/>
</svg>
