<svg width="16" height="15" viewBox="0 0 16 15" fill="none" xmlns="http://www.w3.org/2000/svg">
<g clip-path="url(#clip0_1_4499)">
<path d="M5.455 14.4649C5.615 13.7333 5.775 12.9999 5.94 12.2416C6.34167 12.3266 6.725 12.4116 7.11167 12.4883C10.1467 13.0899 12.8617 10.7333 12.695 7.64328C12.5883 5.68995 11.155 3.94328 9.25167 3.45495C7.26833 2.94495 5.18833 3.75661 4.13333 5.45495C4.10167 5.50495 4.07667 5.55828 4.035 5.63828H5.71667V7.92995H0V2.20995H2.27V4.07828C3.535 2.32661 5.17167 1.28661 7.25667 1.04995C9.34667 0.811613 11.1933 1.41995 12.7583 2.83328C15.1517 4.99495 15.7 8.64495 14.06 11.4333C12.5283 14.0383 9.39333 15.7033 5.455 14.4649Z" fill="#45565C"/>
</g>
<defs>
<clipPath id="clip0_1_4499">
<rect width="15" height="13.8833" fill="white" transform="translate(0 1)"/>
</clipPath>
</defs>
</svg>
