<?xml version="1.0" encoding="utf-8"?>
<!-- Generator: Adobe Illustrator 28.0.0, SVG Export Plug-In . SVG Version: 6.00 Build 0)  -->
<svg version="1.1" id="Слой_1" xmlns="http://www.w3.org/2000/svg" xmlns:xlink="http://www.w3.org/1999/xlink" x="0px" y="0px"
	 viewBox="0 0 42 42" style="enable-background:new 0 0 42 42;" xml:space="preserve">
<style type="text/css">
	.st0{opacity:0.8;}
	.st1{fill:#A3C7D0;}
	.st2{fill:url(#SVGID_1_);}
	.st3{fill:#45565C;}
</style>
<g>
	<g class="st0">
		<path class="st1" d="M21,3L21,3c9.9,0,18,8.1,18,18l0,0c0,9.9-8.1,18-18,18l0,0c-9.9,0-18-8.1-18-18l0,0C3,11.1,11.1,3,21,3z"/>
	</g>
	<g>
		
			<linearGradient id="SVGID_1_" gradientUnits="userSpaceOnUse" x1="41.2075" y1="42.6619" x2="0.4868" y2="43.3432" gradientTransform="matrix(1 0 0 -1 0 64)">
			<stop  offset="0" style="stop-color:#EEFBFF"/>
			<stop  offset="0.185" style="stop-color:#FFFFFF;stop-opacity:0.2"/>
			<stop  offset="0.76" style="stop-color:#FFFFFF;stop-opacity:0.2"/>
			<stop  offset="1" style="stop-color:#EEFBFF"/>
		</linearGradient>
		<path class="st2" d="M21,42C9.4,42,0,32.6,0,21C0,9.4,9.4,0,21,0c11.6,0,21,9.4,21,21C42,32.6,32.6,42,21,42z M21,3
			C11.1,3,3,11.1,3,21s8.1,18,18,18c9.9,0,18-8.1,18-18S30.9,3,21,3z"/>
	</g>
	<g>
		<path class="st3" d="M30,15H12c-0.6,0-1-0.4-1-1s0.4-1,1-1h18c0.6,0,1,0.4,1,1S30.6,15,30,15z"/>
	</g>
	<g>
		<path class="st3" d="M30,22H12c-0.6,0-1-0.4-1-1s0.4-1,1-1h18c0.6,0,1,0.4,1,1S30.6,22,30,22z"/>
	</g>
	<g>
		<path class="st3" d="M30,29H12c-0.6,0-1-0.4-1-1s0.4-1,1-1h18c0.6,0,1,0.4,1,1S30.6,29,30,29z"/>
	</g>
</g>
</svg>
