<svg width="16" height="15" viewBox="0 0 16 15" fill="none" xmlns="http://www.w3.org/2000/svg">
<g clip-path="url(#clip0_1_4493)">
<path d="M0 14.5644C0.0884414 14.2373 0.18022 13.9103 0.261987 13.5799C0.480587 12.7138 0.692513 11.8478 0.912782 10.9817C0.934476 10.8966 0.982868 10.8065 1.04461 10.7447C3.76126 8.02308 6.48126 5.30476 9.19958 2.58477C9.2196 2.56474 9.24296 2.54639 9.25298 2.53638C10.3226 3.60602 11.3889 4.67232 12.4652 5.74864C12.4452 5.77033 12.4118 5.80871 12.3735 5.84542C9.68184 8.53704 6.99021 11.2287 4.29525 13.917C4.21348 13.9987 4.09834 14.0655 3.98654 14.0938C2.82345 14.3909 1.65869 14.6796 0.493937 14.9699C0.233619 15.0367 0.14184 14.9983 0 14.7697C0 14.7012 0 14.6328 0 14.5644Z" fill="#45565C" fill-opacity="0.5"/>
<path d="M13.4081 4.78091C12.3468 3.71961 11.2805 2.65164 10.2275 1.59869C10.623 1.19319 11.0035 0.759327 11.4323 0.375524C11.9997 -0.133431 12.9508 -0.12175 13.5215 0.390543C13.9103 0.739302 14.2825 1.10976 14.6279 1.50023C15.1535 2.09095 15.1469 3.01542 14.6145 3.59279C14.2307 4.0083 13.8086 4.38876 13.4081 4.78258V4.78091Z" fill="#45565C" fill-opacity="0.5"/>
</g>
<defs>
<clipPath id="clip0_1_4493">
<rect width="15.0184" height="15" fill="white"/>
</clipPath>
</defs>
</svg>
