<svg width="30" height="30" viewBox="0 0 30 30" fill="none" xmlns="http://www.w3.org/2000/svg">
<path d="M15.0002 29.9501C23.1934 29.9501 29.8353 23.3082 29.8353 15.1149C29.8353 6.92171 23.1934 0.279785 15.0002 0.279785C6.80696 0.279785 0.165039 6.92171 0.165039 15.1149C0.165039 23.3082 6.80696 29.9501 15.0002 29.9501Z" fill="#63797F"/>
<path d="M19.4508 7.88281H10.5497C9.00432 7.88281 7.76807 9.11907 7.76807 10.6644V19.5655C7.76807 21.1108 9.00432 22.3471 10.5497 22.3471H19.4508C20.9961 22.3471 22.2323 21.1108 22.2323 19.5655V10.6644C22.2323 9.11907 20.9961 7.88281 19.4508 7.88281ZM20.2543 9.55177H20.5634V12.0243H18.0909V9.55177H20.2543ZM12.9604 13.6314C13.3931 13.0133 14.1966 12.5806 15.0002 12.5806C15.8038 12.5806 16.6074 13.0133 17.04 13.6314C17.3491 14.0641 17.5345 14.5586 17.5345 15.1149C17.5345 16.5366 16.3601 17.6493 15.0002 17.6493C13.6403 17.6493 12.4659 16.5367 12.4659 15.1149C12.4659 14.5586 12.6513 14.0641 12.9604 13.6314ZM20.8106 19.5655C20.8106 20.3073 20.1925 20.9254 19.4508 20.9254H10.5497C9.80791 20.9254 9.18977 20.3073 9.18977 19.5655V13.6314H11.3532C11.1678 14.0641 11.0442 14.6204 11.0442 15.1149C11.0442 17.2784 12.8367 19.071 15.0002 19.071C17.1637 19.071 18.9562 17.2784 18.9562 15.1149C18.9562 14.6204 18.8326 14.0641 18.6472 13.6314H20.8106L20.8106 19.5655Z" fill="#BEDCED"/>
</svg>
