<svg width="15" height="12" viewBox="0 0 15 12" fill="none" xmlns="http://www.w3.org/2000/svg">
<g clip-path="url(#clip0_1_4490)">
<path d="M0 0.787001C0.0816667 0.489708 0.225 0.233657 0.511667 0.109928C0.646667 0.0497821 0.801667 0.00682063 0.948333 0.00510218C2.11333 -0.00177166 3.28 -5.32007e-05 4.44667 -5.32007e-05C4.80333 -5.32007e-05 5.08333 0.156327 5.29 0.458775C5.57167 0.869487 5.86 1.27504 6.13833 1.68919C6.20167 1.78199 6.265 1.81636 6.37667 1.81636C8.12833 1.81292 9.88167 1.81292 11.6333 1.81464C12.135 1.81464 12.5017 2.08444 12.605 2.53811C12.63 2.64981 12.6283 2.76838 12.63 2.88352C12.6333 3.23924 12.63 3.59668 12.63 3.97474H12.4183C9.40667 3.97474 6.395 3.97474 3.38333 3.97474C2.99167 3.97474 2.63333 4.06238 2.36 4.36655C2.24667 4.49372 2.15167 4.64666 2.08 4.80304C1.41167 6.23452 0.751667 7.66943 0.0866667 9.10262C0.065 9.15074 0.03 9.19886 0 9.24697C0 6.42698 0 3.60699 0 0.785283V0.787001Z" fill="#45565C" fill-opacity="0.5"/>
<path d="M6.25666 11.9982C4.50833 11.9982 2.75999 11.9982 1.01166 11.9982C0.606659 11.9982 0.294993 11.8332 0.0966594 11.462C0.0366594 11.3503 0.0316594 11.2489 0.0899928 11.1235C0.933326 9.31566 1.77333 7.50612 2.60333 5.69143C2.86666 5.11574 3.29499 4.84595 3.90166 4.84766C7.15499 4.84766 10.4067 4.84766 13.66 4.84766C14.03 4.84766 14.365 4.94218 14.6367 5.2137C15.0217 5.59863 15.1083 6.13823 14.86 6.65548C14.4467 7.51643 14.03 8.37566 13.6133 9.23489C13.2933 9.8965 12.97 10.5564 12.655 11.2197C12.4033 11.7507 12.0017 12.0016 11.4267 11.9999C9.70333 11.993 7.97833 11.9982 6.25499 11.9982H6.25666Z" fill="#45565C" fill-opacity="0.5"/>
</g>
<defs>
<clipPath id="clip0_1_4490">
<rect width="15" height="12" fill="white"/>
</clipPath>
</defs>
</svg>
