<svg width="12" height="15" viewBox="0 0 12 15" fill="none" xmlns="http://www.w3.org/2000/svg">
<path d="M7.29716 0.000169526H3.80164C3.20708 0.000169526 2.70265 0.392611 2.57648 0.938798C2.54044 1.05827 2.52242 1.17775 2.52242 1.2971V6.51881H1.26121C0.558542 6.51881 0 7.04779 0 7.71334C0 8.37886 0.558506 8.90787 1.26121 8.90787H2.52242V9.64168H1.26121C0.558542 9.64168 0 10.1707 0 10.8362C0 11.5017 0.558506 12.0307 1.26121 12.0307H2.52242V13.8055C2.52242 14.471 3.08092 15 3.78362 15C4.48629 15 5.04483 14.471 5.04483 13.8055L5.04497 12.0309H8.77467C9.47733 12.0309 10.0359 11.5019 10.0359 10.8363C10.0359 10.1708 9.47737 9.64181 8.77467 9.64181H5.04497V8.90801H7.2972C9.89168 8.90801 12 6.91142 12 4.45384C11.9999 1.99652 9.89182 0 7.2972 0L7.29716 0.000169526ZM7.29716 6.51884H5.04493V2.38917H7.29716C8.50429 2.38917 9.47729 3.31072 9.47729 4.45404C9.47729 5.59736 8.50429 6.51891 7.29716 6.51891V6.51884Z" fill="#F2769B"/>
</svg>
