<svg width="11" height="15" viewBox="0 0 11 15" fill="none" xmlns="http://www.w3.org/2000/svg">
<path d="M0.25969 12.5572C0.130129 12.5567 0.0248785 12.661 0.0244141 12.7906V14.7663C0.0248793 14.8959 0.130132 15.0006 0.25969 15.0002H10.6386C10.7677 14.9997 10.872 14.8954 10.8725 14.7663V12.7906C10.872 12.662 10.7677 12.5576 10.6386 12.5572H0.25969ZM4.46246 -0.000242611C4.33197 -0.000707846 4.22626 0.105011 4.22672 0.235034V6.65561L2.53477 4.96366C2.44313 4.87248 2.29566 4.87248 2.20435 4.96366L0.808141 6.35987C0.716029 6.45152 0.716029 6.60015 0.808141 6.69178L5.28245 11.1661C5.37409 11.2582 5.52319 11.2582 5.61483 11.1661L10.0903 6.69059C10.1815 6.59895 10.1815 6.45148 10.0903 6.36017L8.69412 4.96396C8.60248 4.87185 8.45384 4.87185 8.36221 4.96396L6.66978 6.65591L6.66967 0.233247C6.6692 0.104618 6.56488 0.000296355 6.43625 -0.000168105L4.46246 -0.000242611Z" fill="#45565C" fill-opacity="0.5"/>
</svg>
