<?xml version="1.0" encoding="utf-8"?>
<!-- Generator: Adobe Illustrator 28.0.0, SVG Export Plug-In . SVG Version: 6.00 Build 0)  -->
<svg version="1.1" id="Слой_1" xmlns="http://www.w3.org/2000/svg" xmlns:xlink="http://www.w3.org/1999/xlink" x="0px" y="0px"
	 viewBox="0 0 42 42" style="enable-background:new 0 0 42 42;" xml:space="preserve">
<style type="text/css">
	.st0{fill:#EEFBFF;}
	.st1{fill:none;stroke:url(#SVGID_1_);stroke-width:3;}
	.st2{fill:#45565C;stroke:#45565C;}
</style>
<g>
	<path shape-rendering="crispEdges" class="st0" d="M21,3L21,3c9.9,0,18,8.1,18,18l0,0c0,9.9-8.1,18-18,18l0,0c-9.9,0-18-8.1-18-18
		l0,0C3,11.1,11.1,3,21,3z"/>
	
		<linearGradient id="SVGID_1_" gradientUnits="userSpaceOnUse" x1="41.2075" y1="42.6619" x2="0.4868" y2="43.3432" gradientTransform="matrix(1 0 0 -1 0 64)">
		<stop  offset="0" style="stop-color:#EEFBFF"/>
		<stop  offset="0.185" style="stop-color:#FFFFFF;stop-opacity:0.2"/>
		<stop  offset="0.76" style="stop-color:#FFFFFF;stop-opacity:0.2"/>
		<stop  offset="1" style="stop-color:#EEFBFF"/>
	</linearGradient>
	<path shape-rendering="crispEdges" class="st1" d="M21,1.5L21,1.5c10.8,0,19.5,8.7,19.5,19.5l0,0c0,10.8-8.7,19.5-19.5,19.5l0,0
		C10.2,40.5,1.5,31.8,1.5,21l0,0C1.5,10.2,10.2,1.5,21,1.5z"/>
</g>
<path class="st2" d="M29,19.1c0-0.2-0.5-0.3-0.7-0.3c-1,0-2,0-2.9,0c-0.8,0-1.5,0-2.4,0c0-0.2,0.1-0.4,0.1-0.6
	c0.7-2.6,1.5-5.2,2.2-7.9c0.1-0.4,0.5-1-0.1-1.3c-0.6-0.3-0.8,0.4-1.1,0.7c-1.9,2.3-9.2,11.5-10,12.5c-0.1,0.1-0.1,0.5,0,0.6
	c0.2,0.2,0.5,0.2,0.7,0.2c1.8,0,3.6,0,5.5,0c-0.1,0.3-0.1,0.6-0.2,0.8c-0.8,2.6-1.6,5.3-2.4,7.9c-0.1,0.4-0.3,0.8,0.1,1
	c0.5,0.2,0.7-0.1,0.9-0.4c1.1-1.3,2.1-2.7,3.2-4c0.7-0.9,3.3-4.1,3.9-4.8c1-1.3,2-2.5,3-3.7C28.9,19.7,29.1,19.3,29,19.1z
	 M19.6,29.7c-0.1-0.1-0.1-0.2,0-0.3c0.6-1.9,1.1-3.7,1.7-5.6c0.1-0.2,0.1-0.5,0.1-0.6c-0.5-0.5-0.7-1.1-1.6-1.1
	c-1.3,0.1-2.6,0-4.1,0c0.6-0.8,6.5-8.2,7.9-9.9l0.1,0c-0.2,0.7-0.4,1.3-0.5,2c-0.4,1.6-0.9,3.1-1.3,4.7c-0.2,0.8-0.1,1,0.7,1
	c1.6,0,3.1,0,4.9,0C26.5,21,20.7,28.3,19.6,29.7z"/>
</svg>
