<svg width="24" height="19" viewBox="0 0 24 19" fill="none" xmlns="http://www.w3.org/2000/svg">
<path d="M15.6672 8.53589C15.6914 8.78164 15.6914 9.02916 15.6672 9.27492C15.6264 9.77656 15.4871 10.2652 15.2573 10.713C15.0275 11.1608 14.7117 11.5589 14.3279 11.8845C13.9442 12.2101 13.5 12.457 13.0208 12.6108C12.5416 12.7647 12.0368 12.8226 11.5352 12.7813" stroke="#63797F" stroke-width="2" stroke-linecap="round" stroke-linejoin="round"/>
<path d="M8.3845 10.7475C8.079 10.1516 7.93751 9.48504 7.97452 8.81635C8.00501 8.17854 8.19447 7.55849 8.52568 7.01257C8.85689 6.46666 9.31934 6.01221 9.87095 5.69057C10.4226 5.36893 11.0458 5.19031 11.6841 5.17095C12.3223 5.15159 12.9553 5.29211 13.5254 5.57973" stroke="#63797F" stroke-width="2" stroke-linecap="round" stroke-linejoin="round"/>
<path d="M19.751 4.1936C21.0434 5.43892 22.0215 6.9735 22.6046 8.67093" stroke="#63797F" stroke-width="2" stroke-linecap="round" stroke-linejoin="round"/>
<path d="M1 9.16168C1.46487 7.56489 2.27562 6.09004 3.37467 4.84188C4.47373 3.59372 5.83412 2.60286 7.35925 1.93967C8.88437 1.27648 10.5368 0.957232 12.1992 1.0046C13.8616 1.05196 15.4932 1.46477 16.9781 2.21372" stroke="#63797F" stroke-width="2" stroke-linecap="round" stroke-linejoin="round"/>
<path d="M7.67773 16.428C9.13006 16.9906 10.6828 17.2477 12.2389 17.1831C13.7951 17.1186 15.3211 16.7339 16.7219 16.053C18.1227 15.3721 19.368 14.4097 20.38 13.2258C21.3921 12.042 22.1492 10.6622 22.604 9.17261" stroke="#63797F" stroke-width="2" stroke-linecap="round" stroke-linejoin="round"/>
<path d="M1 9.39355C1.65668 11.3899 2.85578 13.1643 4.46319 14.5182" stroke="#63797F" stroke-width="2" stroke-linecap="round" stroke-linejoin="round"/>
<path d="M18.8718 1L3.76758 16.6437" stroke="#63797F" stroke-width="2" stroke-linecap="round" stroke-linejoin="round"/>
</svg>
