<svg width="30" height="31" viewBox="0 0 30 31" fill="none" xmlns="http://www.w3.org/2000/svg">
<path d="M13.629 0.317524C10.167 0.583775 7.0095 2.05659 4.52991 4.56207C1.26909 7.85271 -0.294701 12.5121 0.283056 17.1926C1.00491 23.0445 4.99438 27.9186 10.4742 29.6426C14.7111 30.9776 19.4265 30.1854 23.0186 27.5417C27.4322 24.2885 29.7283 18.8932 29.0467 13.3699C28.3249 7.51802 24.3354 2.64394 18.8556 0.91987C17.2247 0.403775 15.3229 0.185336 13.629 0.317524ZM14.7347 9.61287C15.4765 9.68881 15.8476 9.80974 16.0143 10.0347C16.0785 10.141 16.13 10.2547 16.168 10.3737C16.255 10.6362 16.2586 10.9371 16.2042 13.1838C16.1707 14.5873 16.1906 15.0194 16.3012 15.3307C16.4317 15.687 16.719 15.8491 16.9727 15.7151C17.2038 15.5909 17.7413 14.9791 18.092 14.4363C18.904 13.1918 19.3984 12.2276 19.9934 10.7332C20.1135 10.4393 20.2743 10.2457 20.4411 10.2007C20.5077 10.1801 21.4534 10.1632 22.6162 10.1594L24.6712 10.1524L24.8447 10.2283C25.0686 10.3315 25.1556 10.4674 25.1556 10.7121C25.1556 11.1785 24.6843 12.1362 23.8759 13.308C23.7658 13.4707 23.348 14.044 22.9501 14.5868C22.0711 15.7821 21.8807 16.0634 21.7471 16.353C21.5794 16.7196 21.6202 17.0201 21.8839 17.3763C21.9609 17.4766 22.3484 17.8812 22.7458 18.2749C23.8587 19.3774 24.3635 19.9577 24.774 20.5943C25.0686 21.0537 25.1819 21.3926 25.1347 21.6832C25.1112 21.8426 24.958 22.0324 24.784 22.1257C24.5769 22.2335 24.2593 22.2537 22.512 22.2776L20.858 22.302L20.5861 22.2082C19.9046 21.9738 19.4501 21.5824 18.4174 20.3449C17.8464 19.6606 17.4218 19.3254 17.1277 19.3216C16.8572 19.3216 16.5128 19.6948 16.3664 20.1584C16.2667 20.4696 16.2296 20.7077 16.1988 21.2473C16.1625 21.8834 16.0887 22.032 15.7107 22.1942C15.5739 22.2565 13.8696 22.2771 13.4178 22.2288C12.5125 22.1257 11.6732 21.8313 10.8417 21.3232C9.63546 20.5906 8.89684 19.9338 8.10475 18.8904C6.7281 17.0716 5.79372 15.5238 4.64954 13.1871C4.20863 12.2777 3.69069 11.1026 3.60731 10.8227C3.52393 10.5321 3.64356 10.294 3.91816 10.204C4.01151 10.173 4.53308 10.1557 5.73527 10.1383L7.42277 10.121L7.61988 10.1969C7.93074 10.3212 8.06079 10.4805 8.2715 11.0093C8.45185 11.4546 9.4243 13.474 9.72836 14.0374C10.0392 14.6079 10.37 15.0846 10.6541 15.3687C11.0049 15.7249 11.1616 15.8112 11.4095 15.7905C11.6202 15.7699 11.6814 15.7216 11.8074 15.4277C12.1246 14.719 12.1744 12.3237 11.8908 11.3833C11.7276 10.8476 11.4829 10.6437 10.8077 10.4951C10.6908 10.4669 10.6908 10.4262 10.7978 10.2635C11.0583 9.87631 11.5228 9.68974 12.4082 9.61381C12.8931 9.57256 14.3296 9.56881 14.7274 9.61052L14.7347 9.61287Z" fill="#63797F"/>
</svg>
