<?xml version="1.0" encoding="utf-8"?>
<!-- Generator: Adobe Illustrator 28.0.0, SVG Export Plug-In . SVG Version: 6.00 Build 0)  -->
<svg version="1.1" id="Слой_1" xmlns="http://www.w3.org/2000/svg" xmlns:xlink="http://www.w3.org/1999/xlink" x="0px" y="0px"
	 viewBox="0 0 42 42.7" style="enable-background:new 0 0 42 42.7;" xml:space="preserve">
<style type="text/css">
	.st0{opacity:0.8;}
	.st1{fill:#A3C7D0;}
	.st2{fill:url(#SVGID_1_);}
	.st3{fill:#45565C;}
</style>
<g>
	<g class="st0">
		<path class="st1" d="M21,3L21,3c9.9,0,18,8.1,18,18v0.7c0,9.9-8.1,18-18,18l0,0c-9.9,0-18-8.1-18-18V21C3,11.1,11.1,3,21,3z"/>
	</g>
	<g>
		
			<linearGradient id="SVGID_1_" gradientUnits="userSpaceOnUse" x1="41.2078" y1="42.3326" x2="0.4866" y2="43.0015" gradientTransform="matrix(1 0 0 -1 0 64)">
			<stop  offset="0" style="stop-color:#EEFBFF"/>
			<stop  offset="0.185" style="stop-color:#FFFFFF;stop-opacity:0.2"/>
			<stop  offset="0.76" style="stop-color:#FFFFFF;stop-opacity:0.2"/>
			<stop  offset="1" style="stop-color:#EEFBFF"/>
		</linearGradient>
		<path class="st2" d="M21,42.7c-11.6,0-21-9.4-21-21V21C0,9.4,9.4,0,21,0c11.6,0,21,9.4,21,21v0.7C42,33.3,32.6,42.7,21,42.7z
			 M21,3C11.1,3,3,11.1,3,21v0.7c0,9.9,8.1,18,18,18c9.9,0,18-8.1,18-18V21C39,11.1,30.9,3,21,3z"/>
	</g>
	<g>
		<path class="st3" d="M31.4,14.4c-0.5-0.6-1.2-1-2-1l-15.5,0l-0.6-2c-0.1-0.1-0.1-0.2-0.2-0.2c0-0.1-0.1-0.1-0.1-0.1L13,11.1
			c-0.1,0-0.1-0.1-0.2-0.1h-0.2h-0.2H9.9C9.3,11,9,11.3,9,11.9s0.3,0.9,0.9,0.9h2l0.7,2l2.2,10.1c0.3,1.2,1.3,2.1,2.5,2.1h10.3
			c1.2,0,2.2-0.9,2.5-2.1l1.8-8.3C32.1,15.9,31.9,15,31.4,14.4L31.4,14.4z M28.5,24.6c-0.1,0.4-0.4,0.7-0.9,0.7H17.3
			c-0.4,0-0.8-0.3-0.9-0.7l-2-9.4h15c0.5,0,0.9,0.3,0.9,0.9v0.2L28.5,24.6z"/>
	</g>
	<g>
		<path class="st3" d="M18.5,28c-1.4,0-2.5,1.1-2.5,2.5c0,1.4,1.1,2.5,2.5,2.5c1.4,0,2.5-1.1,2.5-2.5C21,29.1,19.9,28,18.5,28z
			 M18.5,31.3c-0.5,0-0.8-0.3-0.8-0.8c0-0.5,0.3-0.8,0.8-0.8s0.8,0.3,0.8,0.8C19.3,31,19,31.3,18.5,31.3z"/>
	</g>
	<g>
		<path class="st3" d="M27.5,28c-1.4,0-2.5,1.1-2.5,2.5c0,1.4,1.1,2.5,2.5,2.5c1.4,0,2.5-1.1,2.5-2.5C30,29.1,28.9,28,27.5,28z
			 M27.5,31.3c-0.5,0-0.8-0.3-0.8-0.8c0-0.5,0.3-0.8,0.8-0.8s0.8,0.3,0.8,0.8C28.3,31,28,31.3,27.5,31.3z"/>
	</g>
</g>
</svg>
