<svg width="17" height="26" viewBox="0 0 17 26" fill="none" xmlns="http://www.w3.org/2000/svg">
<path d="M15.9781 11.1087C15.9289 10.949 15.5113 10.8384 15.2657 10.8262C14.283 10.7893 13.3004 10.8139 12.3178 10.8139C11.5439 10.8139 10.7824 10.8139 9.95945 10.8139C10.0086 10.5805 10.0332 10.4208 10.07 10.2611C10.8193 7.64488 11.5808 5.01634 12.3178 2.3878C12.4406 1.9579 12.8459 1.3806 12.2195 1.07353C11.6054 0.778736 11.3966 1.44201 11.114 1.79822C9.25933 4.07055 1.88958 13.2582 1.0912 14.3145C0.980649 14.4619 0.968366 14.8549 1.06663 14.9532C1.22631 15.1129 1.53338 15.1743 1.77904 15.1743C3.57234 15.1866 5.37793 15.1866 7.2695 15.1866C7.18352 15.5305 7.1221 15.7639 7.0484 15.9973C6.23773 18.6258 5.42706 21.2666 4.62867 23.8952C4.51813 24.2637 4.30932 24.6813 4.77607 24.9392C5.23053 25.1849 5.47619 24.8041 5.72185 24.497C6.79046 23.1582 7.87136 21.8194 8.93997 20.4682C9.62781 19.6084 12.2072 16.3903 12.8091 15.6288C13.8163 14.3759 14.7989 13.1599 15.7693 11.9193C15.9289 11.7105 16.0518 11.342 15.9781 11.1087ZM6.56937 21.6597C6.50796 21.5246 6.50796 21.4509 6.53252 21.3772C7.09754 19.4979 7.67483 17.6309 8.23985 15.7516C8.30126 15.5674 8.38724 15.2603 8.30126 15.1743C7.84679 14.7198 7.56429 14.0688 6.70448 14.118C5.39021 14.1917 4.06366 14.1425 2.60199 14.1425C3.22842 13.3564 9.14878 5.96212 10.549 4.21795L10.6473 4.2548C10.4631 4.90579 10.2911 5.55679 10.1068 6.20778C9.66466 7.76771 9.22248 9.33992 8.78029 10.8998C8.5592 11.6737 8.71888 11.8579 9.51727 11.8579C11.0895 11.8579 12.6617 11.8579 14.4059 11.8579C13.4846 13.0125 7.67483 20.284 6.56937 21.6597Z" fill="#45565C" stroke="#45565C"/>
</svg>
