<svg width="59" height="45" viewBox="0 0 59 45" fill="none" xmlns="http://www.w3.org/2000/svg">
<path d="M20.2627 4.56812H20.2619H19.4193H19.2868H19.1688H18.8831H18.8816H18.8808H18.0397H17.9079H17.7877H17.5035H17.5027H17.5019H16.6241H16.5053H16.3682H16.1062H16.1055H16.1047H15.2628H15.1004H15.0054H14.7067H14.7059H14.7052H13.8457H13.5845L13.5768 4.82236L13.3018 13.8122L13.298 13.9036L13.2842 14.2887H13.6802H14.483H14.565H14.7427H14.9656H15.7684H15.8504H16.025H16.2518H17.0546H17.1312H17.3081H17.5372H18.3415H18.4457H18.5928H18.8578H19.6644H19.9134L19.9326 14.0482L20.6358 5.0629L20.6427 4.9647L20.6725 4.56812H20.2635H20.2627Z" fill="#61777F"/>
<path d="M37.5179 25.6912C37.5179 25.6912 37.5101 25.6903 37.5059 25.6895C37.5101 25.6895 37.5136 25.6903 37.5179 25.6912Z" fill="#61777F"/>
<path d="M36.9512 25.6673C36.9864 25.6673 37.0201 25.6673 37.0546 25.6681C37.0362 25.6681 37.0193 25.6658 37.001 25.6658C36.9849 25.6658 36.968 25.6673 36.9512 25.6673Z" fill="#61777F"/>
<path d="M38.42 25.8674C38.3986 25.8613 38.3787 25.8545 38.3564 25.8484C38.3779 25.8545 38.3986 25.8613 38.42 25.8674Z" fill="#61777F"/>
<path d="M36.2602 25.7183C36.2472 25.7198 36.2349 25.7205 36.2227 25.7228C36.2357 25.7213 36.2479 25.7205 36.2602 25.7183Z" fill="#61777F"/>
<path d="M38.7314 25.9749C39.2998 26.2047 39.7901 26.5381 40.193 26.9538C39.7901 26.5381 39.3006 26.2055 38.7322 25.9749H38.7314Z" fill="#61777F"/>
<path d="M34.6597 26.2139C34.6091 26.239 34.5586 26.2633 34.5088 26.29C34.5593 26.2633 34.6099 26.239 34.6597 26.2139Z" fill="#61777F"/>
<path d="M35.4559 25.8965C35.4076 25.9109 35.3586 25.9285 35.3096 25.9444C35.3586 25.9277 35.4069 25.9109 35.4559 25.8965Z" fill="#61777F"/>
<path d="M35.062 26.0349C35.0106 26.0555 34.9593 26.0768 34.9072 26.0989C34.9586 26.0768 35.0106 26.0555 35.062 26.0349Z" fill="#61777F"/>
<path d="M36.7136 25.6758C36.673 25.6781 36.6332 25.6788 36.5918 25.6819C36.6332 25.6788 36.673 25.6773 36.7136 25.6758Z" fill="#61777F"/>
<path d="M35.8436 25.7937C35.8045 25.8021 35.7647 25.8143 35.7256 25.8234C35.7647 25.8135 35.8045 25.8021 35.8436 25.7937Z" fill="#61777F"/>
<path d="M9.57537 42.6011H2.29809V35.3696H0V42.6011V44.8847H2.29809H9.57537V42.6011Z" fill="#61777F"/>
<path d="M12.4892 34.1615C12.4862 34.4743 12.4823 34.8016 12.4785 35.135C12.4678 36.0249 12.4563 36.9558 12.4463 37.7544C12.4448 37.8541 12.444 37.9523 12.4425 38.0474C12.4341 38.715 12.4264 39.2646 12.4218 39.5797C12.4195 39.7594 12.418 39.8629 12.4172 39.8675C12.4157 39.9504 12.4471 40.0296 12.5045 40.0882C12.562 40.1484 12.6409 40.1811 12.7236 40.1826L15.8015 40.2169H15.8046C15.9739 40.2169 16.1133 40.0814 16.1148 39.9116L16.121 39.4777C16.1409 38.004 16.2029 33.2845 16.206 32.0065C16.2091 30.6972 16.0834 29.6384 15.8038 28.7805C15.7104 28.4943 15.6001 28.2309 15.4706 27.9873C15.2776 27.6227 15.0432 27.303 14.7643 27.0236C14.5782 26.8371 14.3729 26.6681 14.1469 26.5151C13.8076 26.2852 13.4215 26.0911 12.9848 25.9252C12.8102 25.8582 12.6309 25.8041 12.4502 25.7562C12.3927 25.741 12.3352 25.7303 12.2778 25.7166C12.1522 25.6877 12.0258 25.6626 11.8978 25.6428C11.832 25.6329 11.7661 25.6237 11.6994 25.6161C11.5746 25.6017 11.449 25.5918 11.3233 25.5857C11.2605 25.5826 11.1985 25.5781 11.1356 25.5773C11.1073 25.5773 11.0797 25.5735 11.0514 25.5735C10.9097 25.5735 10.768 25.5804 10.6262 25.591C10.5956 25.5933 10.5657 25.5971 10.5351 25.6001C10.3597 25.6161 10.1858 25.639 10.0134 25.6709C10.005 25.6725 9.99656 25.6732 9.98813 25.6747C9.81118 25.709 9.63806 25.7539 9.4657 25.8041C9.43353 25.8133 9.40212 25.8224 9.36995 25.8323C9.20448 25.8848 9.04132 25.945 8.88275 26.0127C8.85364 26.0249 8.82453 26.0386 8.79542 26.0523C8.63149 26.1261 8.46986 26.2053 8.31436 26.2959L8.29138 20.5731C8.28984 20.4034 8.15196 20.2664 7.98113 20.2664H7.9796L4.90169 20.277C4.81973 20.277 4.74159 20.3097 4.68414 20.3684C4.62516 20.4254 4.59375 20.5039 4.59375 20.5861L4.67112 40.0037C4.67112 40.0882 4.70636 40.1651 4.76228 40.2207C4.8182 40.2762 4.89557 40.3105 4.98059 40.3105H4.98213L8.06004 40.3014C8.142 40.3014 8.22014 40.2686 8.27759 40.21C8.33657 40.1529 8.36798 40.0745 8.36798 39.9923L8.32891 29.9657C8.43692 29.8583 8.55489 29.7632 8.67669 29.6741C8.71269 29.6475 8.75023 29.6239 8.787 29.5988C8.87969 29.5364 8.97468 29.4785 9.07196 29.426C9.1095 29.4054 9.14627 29.3849 9.18457 29.3658C9.31632 29.3004 9.45038 29.2402 9.58597 29.1915C9.5921 29.1892 9.59822 29.1877 9.60435 29.1862C9.73534 29.139 9.8671 29.1017 9.99732 29.069C10.0379 29.0591 10.0778 29.0507 10.1184 29.0416C10.2187 29.0195 10.3175 29.002 10.4148 28.989C10.4523 28.9837 10.4899 28.9776 10.5259 28.9738C10.653 28.9601 10.7779 28.9517 10.8951 28.9517C10.9832 28.9517 11.0613 28.9609 11.1418 28.9693C11.1816 28.9731 11.226 28.9723 11.2636 28.9784C11.3762 28.9951 11.4788 29.021 11.5669 29.0537C12.0327 29.2326 12.5145 29.4161 12.5068 31.9996C12.5068 32.3254 12.5015 32.8834 12.4946 33.5563C12.4923 33.7489 12.4908 33.9506 12.4885 34.1592L12.4892 34.1615Z" fill="#61777F"/>
<path d="M4.60449 4.56812V18.4198C4.70101 18.4061 4.7983 18.397 4.89635 18.397L7.98039 18.3863H7.98192C9.18765 18.3863 10.1774 19.3614 10.1888 20.5702L10.2011 23.7399C10.4815 23.7087 10.7649 23.6927 11.0506 23.6927C11.331 23.6927 11.6068 23.7133 11.881 23.7437V4.56812H4.60449Z" fill="#61777F"/>
<path d="M51.7188 26.6682C50.6754 25.7403 49.2897 25.3026 47.6282 25.3468C46.0685 25.413 44.6973 26.0166 43.6663 27.0953C42.0369 28.8019 41.3881 31.5537 41.7949 35.0529C41.9672 36.5579 42.5448 37.8062 43.5092 38.7646C44.3994 39.6491 45.5714 40.2185 46.8951 40.4126C47.2199 40.459 47.5493 40.4834 47.8748 40.4834C50.333 40.4834 52.6503 39.1559 53.64 37.179C53.679 37.1021 53.6836 37.0138 53.6538 36.9339C53.6239 36.854 53.5603 36.79 53.4814 36.7565L50.6762 35.6147C50.5222 35.5531 50.3529 35.6178 50.2817 35.7632C49.757 36.8083 48.4769 37.2171 47.478 37.0656C46.4125 36.9111 45.756 36.1902 45.527 34.919L53.4071 34.5673C53.5672 34.5597 53.6959 34.4318 53.7036 34.2727L53.7518 33.172V33.1705C53.8667 30.115 53.2018 27.9882 51.7203 26.6682H51.7188ZM47.9484 28.7296C48.647 28.7296 48.9641 28.9397 49.1411 29.0973C49.6007 29.5075 49.9071 30.3532 50.0174 31.5004L45.4718 31.7029C45.6258 30.6532 45.9613 29.8356 46.4485 29.3279C46.8085 28.9496 47.2482 28.754 47.7936 28.7319L47.9476 28.7288L47.9484 28.7296Z" fill="#61777F"/>
<path d="M33.0216 23.1818V21.7827H30.2125H29.8127V21.3861V19.1344V18.4973H29.1715H28.3718H27.7306V19.1344V21.3861V21.7827H27.3315H25.1636H24.5225V23.1818V23.8189H25.1636H27.3315H27.7306V24.2163V26.4679V27.1051H28.3718H29.1715H29.8127V26.4679V24.2163V23.8189H30.2125H33.0216V23.1818Z" fill="#61777F"/>
<path d="M40.9496 28.0186C40.7489 27.6228 40.4961 27.265 40.1936 26.9537C39.7906 26.5381 39.3011 26.2054 38.7327 25.9748C38.6385 25.9367 38.5328 25.9009 38.421 25.8674C38.3995 25.8613 38.3796 25.8545 38.3574 25.8484C38.2455 25.8164 38.1268 25.7883 38.0012 25.7631C37.9774 25.7586 37.9529 25.7548 37.9284 25.7502C37.7974 25.7266 37.6611 25.7053 37.5178 25.6916C37.514 25.6916 37.5109 25.6908 37.5071 25.6901C37.3623 25.6764 37.2106 25.6703 37.0551 25.6688C37.0367 25.6688 37.0199 25.6665 37.0015 25.6665C36.9854 25.6665 36.9686 25.668 36.9517 25.668C36.8743 25.668 36.7947 25.6718 36.715 25.6764C36.6744 25.6787 36.6346 25.6794 36.5932 25.6825C36.4844 25.6908 36.3734 25.703 36.2615 25.7182C36.2485 25.7198 36.2362 25.7205 36.224 25.7228C36.0991 25.7411 35.9727 25.7654 35.8456 25.7936C35.8065 25.802 35.7667 25.8141 35.7276 25.8233C35.638 25.8454 35.5491 25.869 35.4587 25.8964C35.4105 25.9108 35.3614 25.9283 35.3124 25.9443C35.2297 25.9717 35.1469 26.0014 35.0642 26.0341C35.0129 26.0547 34.9616 26.076 34.9095 26.0981C34.8267 26.1339 34.744 26.1727 34.6621 26.213C34.6115 26.2381 34.5609 26.2625 34.5111 26.2891C34.4223 26.3363 34.3334 26.3889 34.2446 26.4429C34.2017 26.4688 34.158 26.4931 34.1151 26.5206C33.9841 26.605 33.8531 26.6956 33.7237 26.7953L33.716 25.7845C33.716 25.7677 33.7091 25.7533 33.706 25.738C33.6815 25.5926 33.559 25.48 33.4058 25.48H33.4042L31.3314 25.4944V26.468C31.3314 27.3442 30.799 28.0985 30.0391 28.4312L30.134 40.016C30.134 40.1005 30.1701 40.1766 30.226 40.2314C30.2819 40.287 30.3593 40.3205 30.4435 40.3205H30.4451L33.5015 40.2999H33.5222C33.6057 40.2984 33.6838 40.2649 33.7413 40.2078C33.7627 40.1858 33.7773 40.1591 33.7911 40.1317C33.798 40.118 33.8056 40.1051 33.8102 40.0906C33.8217 40.0579 33.8301 40.0244 33.8301 39.9886L33.7574 31.2705C34.0086 30.9637 34.2492 30.6996 34.4774 30.4712C34.9332 30.016 35.3385 29.7062 35.6755 29.4969C35.844 29.3918 35.9957 29.3119 36.1275 29.251C36.2301 29.2038 36.3282 29.1665 36.4239 29.1338C36.4492 29.1254 36.4745 29.117 36.499 29.1094C36.581 29.0843 36.6599 29.0645 36.7349 29.0516C36.7464 29.0493 36.7587 29.0462 36.7702 29.044C36.8544 29.031 36.9318 29.0272 37.0038 29.0303C37.0191 29.0303 37.0337 29.0325 37.0482 29.0341C37.1179 29.0402 37.1838 29.0523 37.239 29.0752C37.3401 29.1163 37.4404 29.2015 37.5285 29.3302C37.7047 29.5867 37.8303 30.0122 37.8097 30.5884C37.7989 30.8762 37.7522 31.202 37.6565 31.5628C37.635 31.6442 37.6473 31.7295 37.6909 31.8018C37.7361 31.8741 37.8074 31.9236 37.8909 31.9419L40.8853 32.5866C40.9067 32.5912 40.9282 32.5935 40.9496 32.5935C40.9603 32.5935 40.9703 32.5897 40.9803 32.5881C40.9948 32.5866 41.0086 32.5843 41.0224 32.5813C41.0446 32.576 41.0645 32.5676 41.0852 32.5577C41.0975 32.5516 41.1097 32.5463 41.1212 32.5387C41.1419 32.525 41.1588 32.5082 41.1756 32.4899C41.184 32.4816 41.1932 32.474 41.2001 32.4648C41.2216 32.4351 41.2384 32.4024 41.2491 32.3659C41.2491 32.3659 41.2491 32.3651 41.2491 32.3643C41.6812 30.7323 41.5502 29.2053 40.9481 28.0186H40.9496Z" fill="#61777F"/>
<path d="M28.3715 28.613C27.1811 28.613 26.2128 27.6509 26.2128 26.4679V26.0797C26.1768 26.0599 26.14 26.0424 26.104 26.0226C26.0175 25.9762 25.9317 25.929 25.842 25.8879C25.7877 25.8628 25.731 25.8415 25.6758 25.8186C25.5931 25.7836 25.5111 25.7478 25.4261 25.7166C25.3656 25.6946 25.302 25.6763 25.2407 25.6565C25.1572 25.6298 25.0752 25.6017 24.9894 25.5788C24.9236 25.5606 24.8554 25.5461 24.788 25.5301C24.703 25.5103 24.6187 25.4898 24.5321 25.473C24.4617 25.4593 24.3896 25.4487 24.3176 25.438C24.2311 25.4243 24.1438 25.4106 24.0549 25.4C23.9806 25.3908 23.9047 25.3847 23.8297 25.3786C23.7401 25.371 23.6504 25.3634 23.5585 25.3589C23.4811 25.3551 23.4022 25.3535 23.3233 25.352C23.2643 25.3505 23.2069 25.3467 23.1471 25.3467C23.082 25.3467 23.0162 25.3467 22.9503 25.349C21.3891 25.4152 20.0194 26.0188 18.9868 27.0975C17.359 28.8026 16.7102 31.5543 17.1154 35.0551C17.2893 36.56 17.8669 37.8084 18.8298 38.7668C19.7215 39.6513 20.8935 40.2207 22.2157 40.4148C22.5405 40.4612 22.8698 40.4856 23.1969 40.4856C25.6536 40.4856 27.9708 39.158 28.9605 37.1812C28.9996 37.1043 29.0042 37.016 28.9743 36.9361C28.9445 36.8561 28.8809 36.7922 28.802 36.7587L25.9983 35.6169C25.9592 35.6017 25.9194 35.5948 25.8803 35.5941C25.8803 35.5941 25.8796 35.5941 25.8788 35.5941C25.8443 35.5941 25.8122 35.6009 25.7808 35.6116C25.7716 35.6146 25.7639 35.6192 25.7547 35.623C25.7317 35.6336 25.7103 35.6466 25.6904 35.6626C25.6827 35.6687 25.675 35.6747 25.6674 35.6816C25.6429 35.706 25.6207 35.7326 25.6046 35.7661C25.5425 35.8894 25.4682 36.0021 25.387 36.1071C25.3602 36.1421 25.3288 36.1726 25.2997 36.2053C25.2415 36.2723 25.1817 36.3378 25.1166 36.3971C25.0791 36.4314 25.0392 36.4618 24.9994 36.493C24.9358 36.5433 24.8707 36.592 24.8033 36.6362C24.7596 36.6643 24.7152 36.691 24.6692 36.7168C24.5995 36.7564 24.5283 36.7922 24.4555 36.8257C24.4088 36.847 24.3628 36.8683 24.3153 36.8866C24.2372 36.917 24.1583 36.9429 24.0786 36.9665C24.0342 36.9795 23.9898 36.9947 23.9454 37.0061C23.8504 37.0297 23.7546 37.0464 23.6589 37.0609C23.629 37.0655 23.5983 37.0731 23.5685 37.0769C23.4436 37.0921 23.3187 37.099 23.1962 37.0982C23.0606 37.0982 22.9273 37.0883 22.7986 37.0693C21.7331 36.9148 21.0781 36.1939 20.8483 34.9227L28.7284 34.571C28.8885 34.5634 29.0172 34.4355 29.0249 34.2764L29.0732 33.1757V33.1742C29.1421 31.3206 28.9207 29.8127 28.4075 28.6161H28.373L28.3715 28.613ZM20.7931 31.7035C20.9471 30.6553 21.2826 29.8378 21.7698 29.3286C22.136 28.9457 22.5634 28.7546 23.115 28.7325L23.2705 28.7295C23.9676 28.7295 24.2847 28.9396 24.4617 29.0972C24.9213 29.5074 25.2292 30.3547 25.3395 31.5003L20.7924 31.7028L20.7931 31.7035Z" fill="#61777F"/>
<path d="M41.5104 13.3699C41.5104 12.8431 41.6338 12.3491 41.8766 11.903C42.1164 11.4615 42.455 11.106 42.8832 10.8465C43.3075 10.5869 43.7871 10.456 44.3095 10.456C45.0365 10.456 45.6033 10.7011 45.9932 11.1852C46.4038 11.696 46.6122 12.3255 46.6122 13.0555V23.5617C46.9178 23.5145 47.2281 23.478 47.5468 23.4643C47.5567 23.4643 47.5674 23.4635 47.5774 23.4635C47.6693 23.4612 47.7605 23.4597 47.8516 23.4597C49.9107 23.4597 51.6374 24.0671 52.984 25.266C53.2629 25.515 53.5172 25.7844 53.7524 26.0714V12.5424C53.7524 10.966 53.3556 9.51588 52.5734 8.23248C51.7898 6.95061 50.6798 5.92754 49.2749 5.19222C47.8761 4.45841 46.2545 4.08618 44.4566 4.08618C43.1957 4.08618 41.9969 4.27116 40.8938 4.63577C39.8987 4.96614 39.0147 5.42743 38.2617 6.00899C37.5026 5.42895 36.6362 4.96842 35.684 4.63882C34.6238 4.27268 33.4572 4.08694 32.2162 4.08694C31.228 4.08694 30.2391 4.2742 29.2693 4.64567V4.58401H22.002V23.551C22.2862 23.5092 22.5742 23.478 22.8691 23.4658C22.8814 23.4658 22.8936 23.465 22.9066 23.4643C22.9465 23.4635 22.9855 23.4635 23.0254 23.4627C23.0131 23.3714 23.0047 23.2785 23.0047 23.1834V22.4214C23.0047 21.2385 23.9729 20.2763 25.1634 20.2763H26.2128V19.1353C26.2128 17.9523 27.1811 16.9902 28.3715 16.9902H29.1712C29.2042 16.9902 29.2363 16.994 29.2693 16.9947V13.3706C29.2693 12.8439 29.3926 12.3499 29.6354 11.9038C29.8752 11.4608 30.213 11.1053 30.6405 10.8472C31.0664 10.5877 31.5467 10.4567 32.0691 10.4567C32.7945 10.4567 33.3606 10.7018 33.7513 11.186C34.1627 11.6967 34.3718 12.3255 34.3718 13.0563V21.597L34.3879 23.8662C34.5304 23.9415 34.7073 24.0146 34.8299 24.1189C34.8536 24.1113 34.8774 24.1037 34.9011 24.0961C35.0245 24.0588 35.1463 24.026 35.2841 23.9918C35.3324 23.9788 35.3807 23.9667 35.4289 23.956C35.6059 23.9164 35.779 23.8844 35.9468 23.8593C35.972 23.8555 35.9973 23.8525 36.0226 23.8494C36.1651 23.8304 36.3068 23.8152 36.4462 23.8045C36.4937 23.8007 36.5404 23.7984 36.5872 23.7961L36.6117 23.7946C36.7082 23.7893 36.8047 23.7855 36.9005 23.784C36.9342 23.7824 36.9671 23.7817 37.0001 23.7817C37.0399 23.7817 37.079 23.7832 37.1173 23.7847C37.3256 23.7878 37.5125 23.7977 37.691 23.8144C37.7025 23.8152 37.7148 23.8167 37.727 23.8182C37.9017 23.8357 38.0802 23.8616 38.2824 23.8989C38.3123 23.9042 38.3414 23.9096 38.3705 23.9149C38.5444 23.9491 38.7144 23.9903 38.8753 24.0359C38.9044 24.0443 38.932 24.0527 38.9703 24.0641C39.1503 24.1181 39.3058 24.1722 39.4475 24.2293C40.2327 24.5475 40.9252 25.0095 41.5104 25.6002V13.3699Z" fill="#61777F"/>
<path d="M9.57537 0H2.29809H0V2.28362V9.5151H2.29809V2.28362H9.57537V0Z" fill="#61777F"/>
<path d="M56.0517 0H48.7744V2.28362H56.0517V9.5151H58.3498V2.28362V0H56.0517Z" fill="#61777F"/>
<path d="M56.0517 35.3696V42.6011H48.7744V44.8847H58.3498V42.6011V35.3696H56.0517Z" fill="#61777F"/>
</svg>
