<svg width="15" height="15" viewBox="0 0 15 15" fill="none" xmlns="http://www.w3.org/2000/svg">
<g clip-path="url(#clip0_1_4496)">
<path d="M6.41049 4.13159C7.46169 4.14492 8.36795 4.44978 9.16426 5.07451C9.34585 5.21778 9.5241 5.36604 9.70069 5.51764C9.97724 5.75754 10.0122 6.09405 9.78232 6.37726C9.5441 6.67046 9.30254 6.962 9.05431 7.24687C8.81775 7.52009 8.49123 7.54507 8.20802 7.32184C8.06975 7.21189 7.93648 7.09527 7.79987 6.98366C6.94692 6.2873 5.79743 6.32562 5.00778 7.09361C4.31309 7.76997 3.62839 8.45634 2.95036 9.14936C2.38894 9.72411 2.19903 10.4155 2.42892 11.1868C2.65382 11.9398 3.17193 12.4212 3.93992 12.6012C4.60796 12.7578 5.20936 12.5945 5.73079 12.1514C5.90738 12.0014 6.06398 11.8298 6.23057 11.6682C6.50211 11.405 6.8353 11.4034 7.10685 11.6682C7.37673 11.9331 7.64494 12.1997 7.90816 12.4712C8.12806 12.6995 8.15138 13.0243 7.94814 13.2509C7.29343 13.9855 6.53876 14.572 5.56586 14.8402C2.94203 15.5665 0.271549 13.7423 0.0216604 11.0369C-0.103284 9.69079 0.304868 8.51964 1.24445 7.54841C1.97413 6.79374 2.71546 6.0524 3.47179 5.32439C4.29976 4.52808 5.31098 4.15658 6.41215 4.13159H6.41049Z" fill="#45565C" fill-opacity="0.5"/>
<path d="M8.55953 10.8701C7.51666 10.8551 6.6054 10.5419 5.80742 9.91053C5.63583 9.77392 5.46757 9.63232 5.29931 9.49071C5.0111 9.24416 4.97779 8.91264 5.21601 8.61943C5.45091 8.33123 5.68914 8.04469 5.9307 7.76315C6.17226 7.48161 6.49378 7.46162 6.79031 7.68485C7.08685 7.90808 7.36506 8.1763 7.69658 8.3229C8.50622 8.68274 9.28087 8.55446 9.93392 7.94973C10.5103 7.41497 11.0534 6.84356 11.6098 6.28714C11.7914 6.10555 11.978 5.92896 12.1463 5.73738C12.8543 4.92774 12.811 3.70828 12.0496 2.95029C11.28 2.18229 10.0622 2.14231 9.24756 2.86366C9.0793 3.01359 8.92437 3.17852 8.76111 3.33512C8.48789 3.59833 8.15304 3.60333 7.88483 3.34011C7.61495 3.07523 7.34673 2.80868 7.08352 2.53714C6.86195 2.30724 6.83696 1.98405 7.03854 1.75748C7.66826 1.05113 8.3896 0.478052 9.31752 0.196511C11.9797 -0.611463 14.7118 1.21606 14.9683 3.98982C15.09 5.30757 14.6918 6.46373 13.7789 7.41997C13.0459 8.18796 12.2912 8.93596 11.5282 9.6723C10.6952 10.4753 9.6807 10.8501 8.5562 10.8734L8.55953 10.8701Z" fill="#45565C" fill-opacity="0.5"/>
</g>
<defs>
<clipPath id="clip0_1_4496">
<rect width="14.9933" height="15" fill="white"/>
</clipPath>
</defs>
</svg>
