<?xml version="1.0" encoding="utf-8"?>
<!-- Generator: Adobe Illustrator 28.0.0, SVG Export Plug-In . SVG Version: 6.00 Build 0)  -->
<svg version="1.1" id="Слой_1" xmlns="http://www.w3.org/2000/svg" xmlns:xlink="http://www.w3.org/1999/xlink" x="0px" y="0px"
	 viewBox="0 0 1920 1080" style="enable-background:new 0 0 1920 1080;" xml:space="preserve">
<style type="text/css">
	.st0{fill:#F2F2F2;}
	.st1{fill:#C9C9C9;}
	.st2{fill:#C8C8C8;}
	.st3{fill:#FEFEFE;}
	.st4{fill:#F7F7F7;}
	.st5{fill:#FBFBFB;}
	.st6{fill:#F6F6F6;}
	.st7{fill:#BABABA;}
	.st8{fill:#D5D5D5;}
	.st9{fill:#515151;}
</style>
<g>
	<path class="st0" d="M980.9,544c0,5-0.1,10,0.1,15c0.1,1.7-0.3,2.1-2.1,2.1c-5-0.2-10-0.1-15-0.1c-0.1-2.4,2.1-2.2,3.4-2.8
		c4.7-2,7.6-5.1,7.3-10.5c1.5-5.2,1.3-10.5-0.1-15.7c0-1.6-0.1-3.3,1-4.7c3.3-0.8,3.6,1.7,4.3,3.8
		C981.1,535.3,979.6,539.7,980.9,544z"/>
	<path class="st1" d="M976,527c0,1.7,0,3.3-0.1,5c-2.1,0.4-2.8-1.4-3.9-2.5c-8.2-8-16.2-8.1-24.6-0.1c-1,1-1.9,2.5-3.7,1.5
		c-0.9-1.1-0.9-2.4-0.7-3.7c2.2-6.1,7.5-7.3,13-8.1c2.7,0,5.3,0,8,0c3,1,6.5,0.5,9,2.9C974.5,523.4,976.5,524.4,976,527z"/>
	<path class="st2" d="M975.9,548c0.6,5.6-2.3,8.8-7,11.1c-1.6,0.8-3.6,0.4-4.9,1.9c-3,0-6,0-9,0c-3.2-1.2-7.5-0.6-8.9-5
		c-0.2-1.1-0.1-2.1,0.6-2.9c1.8-1,3.1,0.3,4.5,0.9c9,4.2,13.8,3.3,20.8-3.5C973.1,549.4,973.9,547.6,975.9,548z"/>
	<path class="st3" d="M956,519.1c-4.6,1.8-9.3,3.4-12,8c-2,2.4-0.8,6.9-5,8c0-5.2,0-10.5,0-15.7c5.3-0.1,10.7-0.2,16-0.2
		C955.3,519.1,955.6,519.1,956,519.1z"/>
	<path class="st3" d="M976,527c-2.7-4.6-7.5-6.1-12-8c5,0,10,0.1,15-0.1c1.7-0.1,2.1,0.3,2.1,2.1c-0.2,3.6-0.1,7.3-0.1,11
		c-1.1,0.6-1.4-0.4-2-1C978.1,529.6,977.7,527.8,976,527z"/>
	<path class="st4" d="M939,535c2.1-2.4,1.9-6.2,5-8c0,1.3,0,2.7,0,4c0.5,5.3-1.5,10.6,0.3,15.9c0,1.7,0.2,3.3-0.9,4.8
		c-2.5,1.1-3-0.8-3.7-2.5c-0.6-1.4,0.2-3-0.8-4.3C939,541.7,939,538.3,939,535z"/>
	<path class="st5" d="M939,545c1.7,2.1,1,5.6,4,7c1.6,0.3,2.3,1.4,2.7,2.8c-0.6,2.3,2.1,3.8,1.3,6.2c-8,0-8,0-8-8
		C939,550.3,939,547.6,939,545z"/>
	<path class="st6" d="M947,560.9c-0.9-1.9-3.4-3.3-2-6c1.1-0.6,1.4,0.4,2,1c1.8,3,5.6,2.9,8,5C952.3,560.9,949.7,560.9,947,560.9z"
		/>
	<path class="st4" d="M978.9,531c0.7,0.3,1.3,0.7,2,1c0,4,0,8,0,12C978.6,539.9,981.1,535.1,978.9,531z"/>
	<path class="st7" d="M943,547c-1.7-5.4-1.6-10.8,1-15.9c1.5-1.7,2.9-3.6,4.7-5.1c7-5.9,16.8-5.1,23.6,2c1.3,1.3,2.4,2.7,3.6,4.1
		c1.9,5.3,1.9,10.6,0,16c-2.9,3.2-5.3,6.9-9.4,8.6c-7.3,3.1-13.6,0.6-19.5-3.7C943.6,552.3,944.2,549,943,547z"/>
	<path class="st8" d="M943,547c1.3,2,2.7,4,4,6c0,1,0,2,0,3c-0.7-0.3-1.3-0.7-2-1c-0.7-1-1.3-2-2-3C943,550.3,943,548.6,943,547z"/>
	<path class="st9" d="M969.5,532.7c-4.7,1.7-15.3,1.6-19.1,0C956.8,532.7,963.1,532.7,969.5,532.7z"/>
	<path class="st9" d="M950.4,539.5c6.4,0,12.7,0,19.1,0c0,0.3,0,0.6,0,1c-6.4,0-12.7,0-19.1,0C950.5,540.1,950.4,539.8,950.4,539.5z
		"/>
	<path class="st9" d="M950.4,546.3c6.3,0,12.7,0,19,0c0,0.3,0,0.7,0,1c-6.3,0-12.7,0-19,0C950.5,547,950.5,546.7,950.4,546.3z"/>
</g>
</svg>
