<svg width="13" height="15" viewBox="0 0 13 15" fill="none" xmlns="http://www.w3.org/2000/svg">
<path d="M0 1.71434C0 1.47764 0.191879 1.28577 0.428575 1.28577H12.4287C12.6654 1.28577 12.8573 1.47764 12.8573 1.71434V3.42864C12.8573 3.66534 12.6654 3.85721 12.4287 3.85721H0.428575C0.191875 3.85721 0 3.66533 0 3.42864V1.71434Z" fill="#45565C" fill-opacity="0.5"/>
<path d="M0.95459 4.71436L1.71542 14.6043C1.73264 14.8276 1.91878 15 2.14272 15H10.7142C10.9383 15 11.1245 14.8276 11.1417 14.6043L11.9023 4.71436H0.95459Z" fill="#45565C" fill-opacity="0.5"/>
<path fill-rule="evenodd" clip-rule="evenodd" d="M4.28574 0.428575C4.28574 0.191875 4.47762 0 4.71432 0H8.14295C8.3795 0 8.57153 0.191879 8.57153 0.428575C8.57153 0.66527 8.37949 0.857149 8.14295 0.857149H4.71432C4.47762 0.857149 4.28574 0.66527 4.28574 0.428575Z" fill="#45565C" fill-opacity="0.5"/>
</svg>
