<?xml version="1.0" encoding="utf-8"?>
<!-- Generator: Adobe Illustrator 28.0.0, SVG Export Plug-In . SVG Version: 6.00 Build 0)  -->
<svg version="1.1" id="Слой_1" xmlns="http://www.w3.org/2000/svg" xmlns:xlink="http://www.w3.org/1999/xlink" x="0px" y="0px"
	 viewBox="0 0 42 42" style="enable-background:new 0 0 42 42;" xml:space="preserve">
<style type="text/css">
	.st0{opacity:0.8;}
	.st1{fill:#A3C7D0;}
	.st2{fill:url(#SVGID_1_);}
	.st3{fill:#45565C;}
</style>
<g>
	<g class="st0">
		<path class="st1" d="M21,3L21,3c9.9,0,18,8.1,18,18l0,0c0,9.9-8.1,18-18,18l0,0c-9.9,0-18-8.1-18-18l0,0C3,11.1,11.1,3,21,3z"/>
	</g>
	<g>
		
			<linearGradient id="SVGID_1_" gradientUnits="userSpaceOnUse" x1="41.2075" y1="42.6619" x2="0.4868" y2="43.3432" gradientTransform="matrix(1 0 0 -1 0 64)">
			<stop  offset="0" style="stop-color:#EEFBFF"/>
			<stop  offset="0.185" style="stop-color:#FFFFFF;stop-opacity:0.2"/>
			<stop  offset="0.76" style="stop-color:#FFFFFF;stop-opacity:0.2"/>
			<stop  offset="1" style="stop-color:#EEFBFF"/>
		</linearGradient>
		<path class="st2" d="M21,42C9.4,42,0,32.6,0,21C0,9.4,9.4,0,21,0c11.6,0,21,9.4,21,21C42,32.6,32.6,42,21,42z M21,3
			C11.1,3,3,11.1,3,21s8.1,18,18,18c9.9,0,18-8.1,18-18S30.9,3,21,3z"/>
	</g>
	<g>
		<path class="st3" d="M29.1,31c-0.4,0-0.8-0.3-1-0.7c-0.5-1.7-1.6-3.3-2.8-4.2c-1.3-0.9-2.9-1.4-4.5-1.4c-1.6,0-3.1,0.6-4.4,1.6
			c-1.2,1-2.1,2.4-2.5,3.9c-0.1,0.5-0.7,0.9-1.2,0.7c-0.5-0.1-0.9-0.7-0.7-1.2c0.5-2,1.6-3.7,3.2-5c1.6-1.3,3.6-2,5.6-2
			c2,0,4,0.6,5.7,1.8c1.5,1.1,2.9,3.1,3.5,5.2c0.2,0.5-0.1,1.1-0.7,1.2C29.3,31,29.2,31,29.1,31z"/>
	</g>
	<g>
		<path class="st3" d="M21.4,21.2h-0.8c-1.3,0-2.5-0.5-3.4-1.4c-0.9-0.9-1.4-2.1-1.4-3.4v-0.3c0-1.4,0.5-2.6,1.5-3.6
			c1-1,2.2-1.5,3.6-1.5c0,0,0,0,0,0c0.7,0,1.4,0.1,2,0.4c0.6,0.3,1.2,0.7,1.7,1.1c0.5,0.5,0.9,1.1,1.1,1.7c0.3,0.6,0.4,1.3,0.4,2
			v0.2c0,1.3-0.5,2.5-1.4,3.4C23.9,20.7,22.7,21.2,21.4,21.2z M20.9,13C20.9,13,20.9,13,20.9,13c-0.8,0-1.6,0.3-2.2,0.9
			c-0.6,0.6-0.9,1.4-0.9,2.2v0.3c0,0.7,0.3,1.4,0.8,2s1.2,0.8,2,0.8h0.8c0.7,0,1.4-0.3,2-0.8c0.5-0.5,0.8-1.2,0.8-2v-0.2
			c0-0.4-0.1-0.9-0.2-1.3c-0.2-0.4-0.4-0.8-0.7-1.1s-0.7-0.5-1.1-0.7C21.8,13.1,21.3,13,20.9,13z"/>
	</g>
</g>
</svg>
