<svg width="40" height="40" viewBox="0 0 40 40" fill="none" xmlns="http://www.w3.org/2000/svg">
<path d="M20 39.9999C31.0457 39.9999 40 31.0456 40 20C40 8.95427 31.0457 0 20 0C8.95431 0 0 8.95427 0 20C0 31.0456 8.95431 39.9999 20 39.9999Z" fill="url(#paint0_linear_1_2392)"/>
<path d="M31.0326 20.8839C31.0326 23.9316 30.1285 26.3595 28.3202 28.1678C26.2682 30.3215 23.5964 31.3982 20.305 31.3982C17.1557 31.3982 14.4738 30.3112 12.2592 28.1372C10.0649 25.9429 8.96777 23.2306 8.96777 20.0001C8.96777 16.7696 10.0649 14.0673 12.2592 11.8933C14.4738 9.69905 17.1557 8.60193 20.305 8.60193C21.8694 8.60193 23.3627 8.90664 24.785 9.51617C26.2072 10.1257 27.345 10.9385 28.1983 11.9544L26.2784 13.8743C24.8358 12.1473 22.8447 11.2839 20.305 11.2839C18.0091 11.2839 16.0179 12.0965 14.3316 13.722C12.6655 15.327 11.8325 17.4198 11.8325 20.0001C11.8325 22.5805 12.6655 24.6833 14.3316 26.3088C16.0179 27.9138 18.0091 28.7164 20.305 28.7164C22.7431 28.7164 24.7748 27.9036 26.4002 26.2782C27.4568 25.2217 28.0663 23.7487 28.2289 21.8592H20.305V19.2382H30.8803C30.9819 19.8071 31.0326 20.3557 31.0326 20.8839Z" fill="#FEE1DE" stroke="#FEE0DE" stroke-width="1.78425"/>
<defs>
<linearGradient id="paint0_linear_1_2392" x1="19.175" y1="39.0583" x2="19.175" y2="0.486826" gradientUnits="userSpaceOnUse">
<stop stop-color="#E52823"/>
<stop offset="1" stop-color="#FF3A2F"/>
</linearGradient>
</defs>
</svg>
