<svg width="24" height="19" viewBox="0 0 24 19" fill="none" xmlns="http://www.w3.org/2000/svg">
<path d="M11.8051 12.8585C13.9234 12.8585 15.6405 11.1414 15.6405 9.02315C15.6405 6.90492 13.9234 5.18774 11.8051 5.18774C9.6869 5.18774 7.96973 6.90492 7.96973 9.02315C7.96973 11.1414 9.6869 12.8585 11.8051 12.8585Z" stroke="#63797F" stroke-width="2" stroke-linecap="round" stroke-linejoin="round"/>
<path d="M1 9.16876C1.67209 6.8546 3.06462 4.81505 4.97524 3.34652C6.88586 1.87799 9.215 1.057 11.6242 1.00286C14.0333 0.948722 16.397 1.66427 18.3717 3.04549C20.3463 4.42671 21.8291 6.40164 22.6045 8.68327" stroke="#63797F" stroke-width="2" stroke-linecap="round" stroke-linejoin="round"/>
<path d="M1 9.40623C1.74847 11.6955 3.20713 13.6867 5.16419 15.0906C7.12126 16.4946 9.47486 17.2382 11.8833 17.2135C14.2917 17.1889 16.6296 16.3972 18.5575 14.9535C20.4854 13.5098 21.903 11.4892 22.6045 9.18506" stroke="#63797F" stroke-width="2" stroke-linecap="round" stroke-linejoin="round"/>
</svg>
