<svg width="23" height="26" viewBox="0 0 23 26" fill="none" xmlns="http://www.w3.org/2000/svg">
<path d="M2.24881 12.6452V12.615C2.39383 9.2037 4.19197 6.18484 7.0487 4.53955C9.89093 2.90936 13.2842 2.93955 16.1264 4.61502C16.6485 4.93201 17.1415 5.32446 17.649 5.7471C17.8231 5.89804 18.0116 6.04899 18.2001 6.18484C17.4605 6.44144 16.779 6.68295 16.1264 6.90936C15.7059 7.06031 15.2999 7.19616 14.8793 7.3471C14.1108 7.6188 13.7627 8.1471 13.9513 8.79616C14.0383 9.09804 14.2123 9.32446 14.4443 9.46031C14.7343 9.62635 15.1258 9.62635 15.5609 9.4905C16.3004 9.23389 17.0255 8.97729 17.7651 8.72069C18.6061 8.43389 19.4762 8.11691 20.3463 7.83012C20.9698 7.6188 21.2598 7.21125 21.2598 6.53201C21.2598 5.68672 21.2598 4.84144 21.2598 4.01125C21.2598 3.18106 21.2598 2.32068 21.2598 1.4905C21.2598 0.690496 20.8828 0.222572 20.2158 0.207477C19.9112 0.192383 19.6357 0.298043 19.4472 0.49427C19.2297 0.720685 19.1137 1.06785 19.1137 1.50559V4.08672C19.0702 4.04144 19.0267 4.01125 18.9832 3.98106C16.4454 1.7471 13.2697 0.765968 10.0359 1.2037C6.77318 1.64144 3.95995 3.42257 2.0748 6.24521C0.813199 8.1471 0.131644 10.366 0.0591382 12.8113C0.0446371 13.5056 0.320159 13.9584 0.842201 14.0339C0.885704 14.0339 0.929208 14.049 0.987212 14.049C1.33524 14.049 1.74127 13.898 1.97329 13.6716C2.20531 13.4301 2.21981 12.9924 2.24881 12.6452Z" fill="#45565C"/>
<path d="M22.6373 12.2075C22.4633 12.0113 22.2168 11.8905 21.9122 11.8754C21.0132 11.8603 20.8246 12.7358 20.7666 13.5056C20.4476 17.6415 18.4755 20.4943 14.8937 21.9585C11.3264 23.4226 8.02012 22.7283 5.06188 19.9207C5.01838 19.8905 4.98938 19.8452 4.94587 19.7849C5.3229 19.649 5.69993 19.5283 6.06246 19.3924C6.75852 19.1509 7.45458 18.9094 8.15063 18.6679C8.9627 18.3811 9.31072 17.8226 9.10771 17.1735C8.87569 16.4943 8.29564 16.2528 7.49808 16.5245C6.97604 16.7056 6.43949 16.8868 5.91745 17.0679C4.88787 17.4302 3.82929 17.7924 2.7707 18.1396C2.11815 18.3509 1.82812 18.7735 1.82812 19.483C1.84263 20.4188 1.84263 21.3849 1.84263 22.3207C1.84263 23.0302 1.84263 23.7547 1.84263 24.4641C1.84263 24.9169 1.95864 25.2641 2.17615 25.4905C2.35017 25.6717 2.59669 25.7622 2.88671 25.7622C2.90121 25.7622 2.90121 25.7622 2.91571 25.7622C3.58277 25.7471 3.9743 25.2641 3.9743 24.4188V21.883C4.0033 21.9132 4.0323 21.9283 4.0468 21.9585C4.10481 22.0188 4.16281 22.0641 4.22082 22.1245C6.512 24.0868 9.09321 25.0075 11.9064 24.8717C17.9389 24.6 22.4778 19.9811 22.9273 13.6415C22.9708 12.9773 22.8838 12.5094 22.6373 12.2075Z" fill="#45565C"/>
</svg>
