<svg width="23" height="24" viewBox="0 0 23 24" fill="none" xmlns="http://www.w3.org/2000/svg">
<path fill-rule="evenodd" clip-rule="evenodd" d="M12.5453 8.15747V1.85231H21.4272V8.15747H16.6333C16.4633 8.15729 16.2991 8.21771 16.17 8.32812L14.7066 9.57561V8.87173C14.7066 8.68222 14.6314 8.50058 14.4975 8.36656C14.3635 8.23271 14.1816 8.15745 13.9923 8.15745L12.5453 8.15747ZM13.6948 11.7718C13.8184 11.8291 13.9561 11.8498 14.091 11.8311C14.2262 11.8126 14.3531 11.7555 14.4565 11.6668L16.8973 9.58583H22.1417C22.331 9.58546 22.5123 9.51021 22.6461 9.37635C22.7798 9.2425 22.8551 9.06105 22.8551 8.8717V1.13826C22.8549 0.948928 22.7798 0.767658 22.646 0.633792C22.5123 0.49994 22.331 0.424687 22.1417 0.424316H11.8301C11.6408 0.424316 11.4591 0.499574 11.3251 0.633604C11.1913 0.767638 11.116 0.949279 11.1162 1.13859V8.87156C11.1162 9.06089 11.1915 9.24253 11.3253 9.3764C11.4592 9.51044 11.6408 9.58569 11.8302 9.58569H13.2776V11.1236C13.2776 11.26 13.3168 11.3935 13.3904 11.5083C13.464 11.6231 13.5689 11.7145 13.6929 11.7716L13.6948 11.7718ZM17.0879 21.5175C18.2078 21.0045 19.2301 20.3014 20.1097 19.4389L15.6687 17.4892C15.308 17.7943 14.907 18.0484 14.4772 18.2445C13.6802 18.5906 12.6213 18.4014 11.3284 17.6812C10.1497 16.9898 9.06866 16.1445 8.11359 15.1672C7.13652 14.2119 6.29113 13.1309 5.59954 11.9524C4.87959 10.6606 4.68988 9.60155 5.0361 8.80355C5.23203 8.37361 5.48581 7.97227 5.79051 7.61114L3.84098 3.17119C2.9782 4.05047 2.27488 5.07291 1.76235 6.19298C1.27143 7.23923 1.39889 7.9118 1.65267 9.25195C2.6671 14.6009 8.67877 20.6126 14.0253 21.626C15.3269 21.8727 16.0413 22.0069 17.0881 21.5171L17.0879 21.5175ZM5.70857 1.85255C5.73732 1.85328 5.76588 1.85914 5.79262 1.86958C5.85487 1.88843 5.90449 1.93549 5.92647 1.99665L7.54272 5.67596C7.58831 5.77063 7.56176 5.88433 7.479 5.94915C7.25891 6.13537 7.05273 6.31683 6.86048 6.49351L4.98895 2.233C5.18799 2.10208 5.39526 1.98379 5.60929 1.87905C5.63987 1.86294 5.67393 1.85415 5.70854 1.8536L5.70857 1.85255ZM17.6045 15.7369L21.2844 17.3532C21.3455 17.3753 21.3926 17.4249 21.4113 17.4874C21.4373 17.5463 21.4338 17.6141 21.4018 17.6701C21.297 17.8842 21.1791 18.0913 21.0485 18.2905L16.7862 16.4195C16.964 16.2276 17.1455 16.0212 17.3309 15.8006H17.3307C17.3959 15.7178 17.5097 15.6915 17.6045 15.7369ZM21.8588 16.0455L18.1785 14.4292C17.85 14.2829 17.4827 14.2477 17.1325 14.3294C16.7822 14.4109 16.4682 14.6046 16.2382 14.8809C15.0954 16.2377 14.3405 16.7466 13.908 16.9341C13.778 16.9905 13.2587 17.1212 12.024 16.4333H12.0242C10.9609 15.8058 9.98572 15.0398 9.12402 14.156C8.24 13.2943 7.47407 12.3191 6.84655 11.256C6.1588 10.0217 6.28916 9.50147 6.34574 9.37186C6.53306 8.9401 7.04174 8.18443 8.39891 7.04166C8.6754 6.81168 8.86911 6.49768 8.95063 6.14719C9.03229 5.79691 8.99714 5.42958 8.85065 5.10113L7.23454 1.42088C7.05254 1.0067 6.70978 0.684613 6.28495 0.528801C5.86033 0.372796 5.39048 0.396782 4.9838 0.594717C3.16701 1.48004 1.56337 3.25248 0.469311 5.5855C-0.217877 7.05053 -0.0217984 8.08469 0.250133 9.52155C0.784414 12.3399 2.59112 15.4578 5.20669 18.073C7.82237 20.6884 10.94 22.4953 13.7642 23.03C14.3985 23.173 15.0444 23.2567 15.6941 23.2797C16.3884 23.2783 17.0731 23.1177 17.6955 22.8104C20.0286 21.716 21.8011 20.1131 22.6862 18.2959C22.8844 17.8891 22.9082 17.4192 22.7522 16.9946C22.5963 16.57 22.2741 16.227 21.8599 16.0452L21.8588 16.0455Z" fill="#45565C"/>
</svg>
