<svg width="31" height="31" viewBox="0 0 31 31" fill="none" xmlns="http://www.w3.org/2000/svg">
<path d="M15.7568 0.279785C11.7854 0.30047 7.98428 1.8953 5.18701 4.71452C2.38974 7.53375 0.824669 11.3473 0.835012 15.3187C0.845354 19.2902 2.43026 23.0955 5.24218 25.9002C8.05409 28.7048 11.8635 30.2798 15.835 30.2798C19.8064 30.2798 23.6158 28.7048 26.4277 25.9002C29.2397 23.0955 30.8246 19.2902 30.8349 15.3187C30.8453 11.3473 29.2802 7.53375 26.4829 4.71452C23.6856 1.8953 19.8845 0.30047 15.9131 0.279785M11.6162 17.0768C10.5225 17.7799 9.89746 17.7018 8.95996 17.4674C8.02246 17.233 7.31934 16.9986 6.38184 16.6861C5.44434 16.3736 5.13184 15.6705 6.77246 15.0455C15.4704 11.2434 20.5225 9.13401 21.9287 8.71734C23.4131 8.24859 23.8037 8.87359 23.6475 10.0455C23.2829 13.1705 22.6579 17.1028 21.7725 21.8424C21.5381 23.1706 20.9131 24.2643 18.96 22.9362L14.1162 19.6549C13.387 19.1341 13.2568 18.6132 13.7256 18.0924C14.7412 16.9205 16.5381 15.5143 18.96 13.0142C19.2204 12.7538 19.2985 12.5455 19.1943 12.3892C19.0902 12.233 18.8818 12.259 18.5693 12.4674" fill="#63797F"/>
</svg>
