<?xml version="1.0" encoding="utf-8"?>
<!-- Generator: Adobe Illustrator 28.0.0, SVG Export Plug-In . SVG Version: 6.00 Build 0)  -->
<svg version="1.1" id="Слой_1" xmlns="http://www.w3.org/2000/svg" xmlns:xlink="http://www.w3.org/1999/xlink" x="0px" y="0px"
	 viewBox="0 0 42 42" style="enable-background:new 0 0 42 42;" xml:space="preserve">
<style type="text/css">
	.st0{fill:#EEFBFF;}
	.st1{fill:none;stroke:url(#SVGID_1_);stroke-width:3;}
</style>
<g>
	<path shape-rendering="crispEdges" class="st0" d="M21,3L21,3c9.9,0,18,8.1,18,18l0,0c0,9.9-8.1,18-18,18l0,0c-9.9,0-18-8.1-18-18
		l0,0C3,11.1,11.1,3,21,3z"/>
	
		<linearGradient id="SVGID_1_" gradientUnits="userSpaceOnUse" x1="41.2075" y1="1037.3381" x2="0.4868" y2="1036.6567" gradientTransform="matrix(1 0 0 1 0 -1016)">
		<stop  offset="0" style="stop-color:#EEFBFF"/>
		<stop  offset="0.185" style="stop-color:#FFFFFF;stop-opacity:0.2"/>
		<stop  offset="0.76" style="stop-color:#FFFFFF;stop-opacity:0.2"/>
		<stop  offset="1" style="stop-color:#EEFBFF"/>
	</linearGradient>
	<path shape-rendering="crispEdges" class="st1" d="M21,1.5L21,1.5c10.8,0,19.5,8.7,19.5,19.5l0,0c0,10.8-8.7,19.5-19.5,19.5l0,0
		C10.2,40.5,1.5,31.8,1.5,21l0,0C1.5,10.2,10.2,1.5,21,1.5z"/>
</g>
</svg>
