<svg width="40" height="40" viewBox="0 0 40 40" fill="none" xmlns="http://www.w3.org/2000/svg">
<path d="M20 40C31.0457 40 40 31.0457 40 20C40 8.95431 31.0457 0 20 0C8.95431 0 0 8.95431 0 20C0 31.0457 8.95431 40 20 40Z" fill="#4D76A1"/>
<path fill-rule="evenodd" clip-rule="evenodd" d="M19.2443 28.7718H20.814C20.814 28.7718 21.2882 28.7197 21.5303 28.4587C21.7531 28.2191 21.746 27.7692 21.746 27.7692C21.746 27.7692 21.7153 25.6629 22.6929 25.3527C23.6565 25.0472 24.894 27.3885 26.2056 28.2887C27.1975 28.97 27.9512 28.8206 27.9512 28.8206L31.4582 28.7718C31.4582 28.7718 33.2929 28.6587 32.423 27.2163C32.3517 27.0982 31.9164 26.1492 29.8154 24.199C27.6164 22.158 27.9109 22.4881 30.5598 18.9575C32.1731 16.8073 32.818 15.4946 32.6166 14.9324C32.4244 14.3969 31.2379 14.5384 31.2379 14.5384L27.2891 14.563C27.2891 14.563 26.9964 14.5231 26.7793 14.6529C26.5672 14.7802 26.4306 15.0768 26.4306 15.0768C26.4306 15.0768 25.8056 16.7407 24.9721 18.1557C23.2137 21.1415 22.5107 21.2991 22.2233 21.1137C21.5549 20.6816 21.7217 19.3778 21.7217 18.4516C21.7217 15.5581 22.1606 14.3516 20.8671 14.0393C20.4379 13.9356 20.122 13.8671 19.0243 13.8561C17.6153 13.8414 16.4228 13.8603 15.7475 14.1912C15.2983 14.4112 14.9518 14.9014 15.1628 14.9295C15.4238 14.9645 16.0149 15.0889 16.3283 15.5157C16.7329 16.0661 16.7187 17.3025 16.7187 17.3025C16.7187 17.3025 16.9511 20.7087 16.1757 21.1319C15.6434 21.4221 14.9133 20.8296 13.3457 18.1207C12.5424 16.7332 11.936 15.1994 11.936 15.1994C11.936 15.1994 11.819 14.9128 11.6105 14.7595C11.3573 14.5737 11.0037 14.5146 11.0037 14.5146L7.25132 14.5392C7.25132 14.5392 6.68802 14.5548 6.48124 14.7998C6.29728 15.0176 6.46662 15.4682 6.46662 15.4682C6.46662 15.4682 9.40434 22.3412 12.7307 25.8048C15.7807 28.9803 19.2443 28.7718 19.2443 28.7718Z" fill="white"/>
</svg>
