<?xml version="1.0" encoding="utf-8"?>
<!-- Generator: Adobe Illustrator 28.0.0, SVG Export Plug-In . SVG Version: 6.00 Build 0)  -->
<svg version="1.1" id="Слой_1" xmlns="http://www.w3.org/2000/svg" xmlns:xlink="http://www.w3.org/1999/xlink" x="0px" y="0px"
	 viewBox="0 0 50 50" style="enable-background:new 0 0 50 50;" xml:space="preserve">
<style type="text/css">
	.st0{fill:#FEFEFE;}
	.st1{fill:#F7F7F7;}
	.st2{fill:#DADADA;}
	.st3{fill:#DFDFDF;}
	.st4{fill:#E7E7E7;}
	.st5{fill:#D1D1D1;}
	.st6{fill:#A1A1A1;}
	.st7{fill:#B4B4B4;}
	.st8{fill:#D8D8D8;}
	.st9{fill:#D2D2D2;}
	.st10{fill:#CCCCCC;}
	.st11{fill:#9D9D9D;}
	.st12{fill:#888888;}
	.st13{fill:#B7B7B7;}
	.st14{fill:#909090;}
	.st15{fill:#AEAEAE;}
	.st16{fill:#797979;}
	.st17{fill:#BEBEBE;}
	.st18{fill:#919191;}
	.st19{fill:#858585;}
	.st20{fill:#E1E1E1;}
	.st21{fill:#D4D4D4;}
	.st22{fill:#808080;}
	.st23{fill:#929292;}
	.st24{fill:#B6B6B6;}
	.st25{fill:#D6D6D6;}
	.st26{fill:#989898;}
	.st27{fill:#C1C1C1;}
	.st28{fill:#BBBBBB;}
	.st29{fill:#838383;}
	.st30{fill:#969696;}
	.st31{fill:#D5D5D5;}
	.st32{fill:#E3E3E3;}
	.st33{fill:#F8F8F8;}
	.st34{fill:#F1F1F1;}
	.st35{fill:#C6C6C6;}
</style>
<g>
	<path class="st0" d="M44,49.8c-13.6,0-27.3-0.1-40.9,0.1c-2.1,0-2.6-0.4-2.5-2.5c0.1-9.3,0.1-18.7,0.1-28c1.1-0.8,2-0.4,2.3,0.7
		c0.7,2.8,2.8,4.3,4.8,5.9c0.4,0.2,0.7,0.5,1,0.8c0.3,0.3,0.6,0.6,0.9,1c1.1,1.5,2.7,2.1,4.5,2.1c2.4-0.3,5.1,0.9,7.2-1.3
		c0.3-0.3,0.6-0.6,1-0.9c0.8-0.4,1.7-0.5,2.7-0.4c1.6,0.3,2.9,1.3,4.3,1.9c0.4,0.2,0.7,0.4,1.1,0.7c0.8,1.1,0.2,2.4,0.7,3.5
		c0.4,0.9,1.3,1.4,2,2c0.3,0.2,0.6,0.5,0.8,0.8c0.8,1.1,1.6,2.2,2.7,3.2c0.9,0.9,1.9,1.5,2.9,2.2c0.7,0.6,1.1,1.3,1.5,2.1
		c0.7,1.9,2.4,3.1,3.3,4.9C44.4,49,44.3,49.4,44,49.8z"/>
	<path class="st0" d="M19.4,0.6c9.4,0,18.7,0.1,28.1-0.1C49.6,0.5,50,1,50,3.1c-0.1,13.9-0.1,27.8-0.1,41.8
		c-0.3,0.3-0.7,0.4-1.1,0.3c-1-0.5-1.7-1.2-2.4-2.1c-0.3-0.3-0.5-0.7-0.7-1C45,41,44,40.2,42.9,39.6c-0.9-0.6-1.7-1.3-2.6-1.8
		c-2.1-1.5-3.9-3.3-5.5-5.2c-0.7-1.3-1.7-2.2-3-3c-1.1-0.8-2-1.7-2.8-2.8c-0.2-0.4-0.4-0.8-0.6-1.3c-0.3-1.4,0-2.7,0.8-4
		c1.1-1.5,0.7-3.3,0.8-5c0-1.3,0-2.6-0.7-3.7C27.7,8,24.3,4.7,20,2.4C19.5,1.9,19,1.4,19.4,0.6z"/>
	<path class="st1" d="M0.6,13.4C0.6,9.1-1,3.2,1.1,1.1s8.1-0.5,12.4-0.5c0.2,2.3-2.1,2.1-3.2,2.9C7.3,4.4,6.4,7.3,4.4,9.1
		c-1.3,1.2-1.5,3.1-2.6,4.4C1.4,13.8,1,13.7,0.6,13.4z"/>
	<path class="st2" d="M7.6,27.1c-3.7-1.3-4.8-5-7-7.8c0-1.3,0-2.6,0-3.9c1.2-0.5,2.5-0.7,3.5,0.4c0.9,2,1.1,4.3,2.5,6.2
		C7.6,23.5,9.1,25,7.6,27.1z"/>
	<path class="st3" d="M9.5,2.6c1.3-0.7,2.6-1.4,3.9-2c0.3,0,0.7,0,1,0c1.3,1.4,2.6,1,3.9,0c0.3,0,0.7,0,1,0c0.3,0.3,0.7,0.7,1,1
		c0.7,0.9,1.6,1.7,1.1,3.1c-1,0.7-2.1,0.4-3.3,0.2c-1.6-0.2-3.2-0.4-4.8,0.2c-0.5,0.3-1.1,0.5-1.6,0.7c-0.2,0-0.4,0.1-0.6,0.1
		c-0.4,0-0.8-0.2-1.1-0.5C9.4,4.6,9,3.7,9.5,2.6z"/>
	<path class="st4" d="M49.1,44.8c0.3,0,0.6,0,0.9,0.1c0,2.7,0.9,6.1-3.9,4.9c-0.3-0.3-0.5-0.7-0.6-1.1c0-0.4,0.2-0.8,0.4-1.2
		C46.9,46.6,47.7,45.4,49.1,44.8z"/>
	<path class="st5" d="M3.6,15.4c-1,0.6-2,0.6-3,0c0-0.7,0-1.3,0-2c0.3,0,0.7,0,1,0c0.5-0.6,1.2-0.6,1.9-0.4c0.9,0.5,1.4,1.2,1.2,2.3
		C4.4,15.7,4,15.7,3.6,15.4z"/>
	<path class="st1" d="M18.4,0.6c-1.3,2-2.6,3.2-3.9,0C15.7,0.6,17.1,0.6,18.4,0.6z"/>
	<path class="st6" d="M45.9,48.7c0,0.3,0,0.7,0.1,1c-0.7,0-1.3,0-2,0c0-0.3,0-0.7,0-1C44.7,48.3,45.3,48.2,45.9,48.7z"/>
	<path class="st7" d="M4.5,15.3c-0.4-0.6-0.7-1.3-1.1-1.9C2.9,12.2,3.5,11.1,4,10c1.8-2,3.2-4.7,6.5-4.6l0,0.1
		c1.6,1.8,0.4,3.2-0.6,4.7C8.8,12,7.8,13.8,8.2,16c0.1,0.4,0.1,0.9,0.1,1.3c-0.4,3.1,1,5.5,2.6,7.9c0.1,0.5,0.1,0.9-0.1,1.4
		c-0.6,1-1.4,1.3-2.4,0.6c-0.3,0-0.6-0.1-0.8-0.2c0.3-2-1.1-3.3-2.1-4.8C4.7,20,4.6,17.7,4.5,15.3z"/>
	<path class="st8" d="M8.4,27.2c0.8-0.1,1.7-0.2,2.2-1.1c1.6-1.1,3.4-0.3,5.1-0.7c1.4-0.3,2.9-0.4,4.2-1.2c0.7-0.3,1.3-0.4,1.9,0.2
		c0.9,1.2,1.6,2.4,0.5,3.9c0,0.3-0.1,0.7-0.1,1c-2.6,1.6-5.4,0.6-8.2,0.8c-2,0-3.6-1.1-5.4-1.8C8.6,27.9,8.5,27.6,8.4,27.2z"/>
	<path class="st9" d="M40,43.6c-0.3-0.5-0.6-1-0.8-1.5c-0.9-0.9-1.8-1.7-2.5-2.7c-1.4-0.9-2.3-2.2-3.4-3.4l0,0.1
		c-0.4-0.4-0.4-0.9,0-1.3c4.2-1.8,5.3,2.9,8.2,3.8c1.1,1.4,2.7,2.4,2.3,4.6c-0.1,0.5-0.5,0.9-0.9,1.2C41.7,44.7,40.7,44.7,40,43.6z"
		/>
	<path class="st10" d="M22.3,28.3c-0.3-1.3-0.6-2.6-1-3.9c0.1-0.9,0.8-1.4,1.4-2c0.9-0.6,1.7-1.3,2.8-1.5c1,0.1,1.7,0.6,2.1,1.4
		c0.5,2-0.9,3.3-1.6,4.9c-0.3,0.3-0.6,0.7-0.9,0.9C24.3,28.2,23.3,28.2,22.3,28.3z"/>
	<path class="st11" d="M13.4,29.3c2.9,0,5.9,0,8.8,0c-2.3,3.6-5.8,1.5-8.8,1.7C12.9,30.4,12.9,29.8,13.4,29.3z"/>
	<path class="st12" d="M40,43.6c1,0.1,2,0.2,3.1,0.3c2,0.6,3.4,1.7,3.3,3.9c-0.1,0.3-0.3,0.6-0.4,0.9c-0.6,0-1.2,0-1.9,0
		C42.3,47.3,39.9,46.4,40,43.6z"/>
	<path class="st13" d="M25.2,28.2c0-0.3,0-0.6,0-0.9c1-1.4,2-2.6,3.8-1.2l0.2-0.1c0.8,1.4,1.1,2.9,0.1,4.3
		C27.3,31,26.7,28.7,25.2,28.2z"/>
	<path class="st14" d="M13.4,29.3c0,0.6,0,1.1,0,1.7c-2.1,0.1-3.7-0.8-4.8-2.6C10.2,28.6,11.8,28.9,13.4,29.3z"/>
	<path class="st15" d="M30.1,34.1c-1.7-1.1-0.2-2.5-0.5-3.8c0.3-0.4,0.6-0.7,1.1-0.7c1.3,0.2,2.1,1.1,2.7,2.1c0.3,0.6,0.3,1.3,0.1,2
		C32.6,35.2,31.3,33.9,30.1,34.1z"/>
	<path class="st16" d="M33.2,36c1.9,0.3,2.8,1.8,3.9,3.1c0.2,1-0.1,1.3-1.1,1C34.5,39,33.3,37.9,33.2,36z"/>
	<path class="st17" d="M31.2,30.1c-0.5,0.1-1,0.2-1.5,0.2c0,0-0.3,0-0.3,0c0-1.4,0-2.9-0.1-4.3c1,1,1.9,2,2.9,3
		C32.1,29.7,31.7,30,31.2,30.1z"/>
	<path class="st18" d="M30.1,34.1c1-1.7,2-0.5,3-0.1c0.2,0.2,0.4,0.4,0.3,0.6c0,0.2-0.1,0.3-0.1,0.3c0,0.4-0.1,0.7-0.1,1.1
		C31.8,35.9,30.8,35.3,30.1,34.1z"/>
	<path class="st19" d="M35.9,40c0.4-0.3,0.7-0.6,1.1-1c1.2,0.7,1.7,1.9,2.1,3.1C37.6,42.2,36.6,41.3,35.9,40z"/>
	<path class="st20" d="M27.1,22.2c-0.6-0.3-1.2-0.6-1.8-0.9c-0.7-1.3-0.1-2.4,0.4-3.6c0.2-0.3,0.5-0.6,0.9-0.8
		c1-0.9,0.4-1.9,0.1-2.8c-0.2-0.4-0.4-0.7-0.6-1.1c-0.9-1.3-2.5-2.2-2.4-4c0-1.7-1.9-1.8-2.5-3.1C21,5.5,21,5.1,21.3,4.7
		c-0.3-1-0.6-2-0.9-3.1c5.3,1.7,8.2,5.7,9.9,10.7c-0.1,1.4,0,2.9,0,4.3c-0.1,1.5,0.2,3-0.4,4.4C29.1,21.9,28.2,22.3,27.1,22.2z"/>
	<path class="st4" d="M33.3,35c0-0.3-0.1-0.6-0.2-0.9c0.1-0.6,0.1-1.3,0.2-1.9c0.6-0.5,1.2-0.7,1.8-0.1c2,1.6,4,3.3,5.9,4.9
		c0.5,0.7,0.6,1.3,0,2C37.8,38.9,36.9,34.4,33.3,35z"/>
	<path class="st21" d="M46.3,47.8c-1.1-1.3-2.2-2.6-3.3-3.9c0-0.4,0-0.7,0-1.1c1.3-1.1,2.7-1,4-0.1c0.7,0.7,1.3,1.3,2,2
		C48.9,46.4,48.1,47.6,46.3,47.8z"/>
	<path class="st22" d="M27.1,22.2c0.4-0.9,1.2-1,2.1-1c0.8-0.3,1.1-0.1,0.9,0.8c-1.2,1.2-0.7,2.8-1,4.2c-1.5-0.4-2.6,0.6-3.8,1.2
		C24.7,25.2,27.4,24.2,27.1,22.2z"/>
	<path class="st4" d="M47.1,42.8c-1.3,0-2.7,0-4,0.1c-0.7-1.3-1.3-2.6-2-3.9c0-0.7,0-1.3,0-2c0.7,0.6,1.3,1.3,2,1.9
		c1.3,1,2.4,2.3,3.9,3C47,42.2,47,42.5,47.1,42.8z"/>
	<path class="st23" d="M30.1,22c-0.3-0.3-0.6-0.5-0.9-0.8c0.1-1.6,0.1-3.2,0.2-4.8c0.6-0.7,1.2-0.6,1.8,0C31,18.3,31.8,20.4,30.1,22
		z"/>
	<path class="st24" d="M35.1,32.1c-0.6,0-1.2,0-1.8,0.1c-1-0.4-1.7-1-2.1-2c0.3-0.3,0.7-0.7,1-1C34.2,29.1,35.1,30.1,35.1,32.1z"/>
	<path class="st15" d="M31.1,16.4c-0.6,0-1.2,0-1.8,0c0-1.4-0.5-3,0.9-4.1C31.5,13.5,31.1,15,31.1,16.4z"/>
	<path class="st9" d="M46.9,41.9c-2.4,0.4-3.2-1.2-3.9-3C45,39,46.1,40.2,46.9,41.9z"/>
	<path class="st3" d="M10.5,5.4c-2,1.7-3.9,3.4-5.9,5.1c-1.7,0-1.8-0.8-1-2c2.1-1.8,2.6-5.3,5.9-5.8C9.8,3.6,10.2,4.5,10.5,5.4z"/>
	<path class="st25" d="M3.6,8.5c0,0.8,0.2,1.6,1,2c-0.4,1-0.8,1.9-1.1,2.9c-0.6,0-1.2,0-1.9,0C1.6,11.5,2,9.7,3.6,8.5z"/>
	<path class="st26" d="M4.5,15.3c1.9,2.1,0.7,4.7,1,7c-1.7-2-2.1-4.4-2-6.9C3.9,15.4,4.2,15.3,4.5,15.3z"/>
	<path class="st27" d="M7.6,16.3c-2.1-2.6,0-4.6,1.2-6.4c0.9-1.4,2-2.5,1.7-4.3c0.3-0.1,0.6-0.1,0.9-0.1c0.6,0.9,1.7,0.8,2.5,1.4
		c0.4,0.9,0.3,1.7-0.2,2.5c-1.9,1-3.3,2.4-3.9,4.6C9.6,15,9.5,16.6,7.6,16.3z"/>
	<path class="st28" d="M13.4,6.5c-1.2,0.6-2.1,0.5-2-1.1c0.3-0.3,0.5-0.6,0.8-0.9c1.7-0.9,3.5-0.3,5.3-0.5c0.5,0,0.9,0.2,1.2,0.7
		C17.8,7.9,15.6,7.1,13.4,6.5z"/>
	<path class="st29" d="M18.4,4.5c-2.1,0-4.1,0.1-6.2,0.1c1.8-1.8,4-0.8,6.1-0.8c0.3,0.1,0.4,0.3,0.3,0.5C18.6,4.4,18.5,4.5,18.4,4.5
		z"/>
	<path class="st30" d="M18.4,4.5c0-0.2,0-0.5-0.1-0.7c1,0.3,2,0.6,2.9,0.9c0,0.3,0,0.6,0.1,0.8c-2,1.6-2.2,1.6-3,0
		C18.4,5.2,18.4,4.8,18.4,4.5z"/>
	<path class="st31" d="M7.6,16.3c1.3-1.2,1-3,1.5-4.4c0.7-1.6,1.7-3.7,4.3-2.5c0.1,0.2,0.2,0.4,0.3,0.5c0.1,1.1-0.2,2.1-0.3,3.1
		c-0.4,1.7-1.2,3.2-2.2,4.6c-0.5,0.7-1,1.4-1.8,1.9c-1.7,0.1-1.3-1.4-1.9-2.2C7.6,17,7.6,16.7,7.6,16.3z"/>
	<path class="st32" d="M9.4,19.3c0.1-0.8,0.2-1.6,1-2c2.5,0.3,1.1,3.3,2.9,4.1c0.3,0.3,0.5,0.6,0.7,1c0.3,1.3,1.9,2.2,1.3,3.8
		c-1.6,0.5-3.2,0.7-4.8,0c-0.1-0.3-0.1-0.6-0.2-1C9.4,23.4,7.5,21.7,9.4,19.3z"/>
	<path class="st27" d="M9.4,19.3c0.3,2,0.7,3.9,1,5.9c-3.2-1.8-3.7-4.6-2.8-7.9C8.2,18,8.8,18.6,9.4,19.3z"/>
	<path class="st33" d="M27.2,12.4c0,0.3,0,0.6,0,0.9c-0.2,1.3,0.5,2.7,0,4l-0.5,0l-0.5,0c-1,1.9-1.6,4.1-3,5.8
		c-0.6,0.4-1.3,0.8-1.9,1.2c-0.3,0.3-0.7,0.6-1,0.9c-3.2,1.1-5.6,0.3-6.9-2.9l0,0c-0.5-2.8-1-5.6,2.4-7.1c2-0.9,3.2-3,5.3-3.6
		C23.3,10.9,25.3,11.6,27.2,12.4z"/>
	<path class="st34" d="M13.4,22.2c1.8,2.2,4,3.3,6.9,2.9c-1.4,1.6-3.3,0.7-4.9,1C14.4,25.1,13,24.1,13.4,22.2z"/>
	<path class="st33" d="M23.3,23.1c0.5-2.2,1.3-4.2,3-5.8c-0.3,1.3-0.7,2.6-1,3.9C24.6,21.9,24,22.5,23.3,23.1z"/>
	<path class="st34" d="M27.2,12.4c-2.3,0-4.6,0-6.9,0c-1.8,0-3.8,2.8-5.5-0.2c-0.2-0.7-0.3-1.3-0.1-2c3.1-3.8,4.6-4,9.5-1.6
		C24.1,10.7,26.3,11.1,27.2,12.4z"/>
	<path class="st21" d="M24.2,8.6c-3.1-0.1-6.5-1.9-8.9,1.8c-1.1,0.6-1.5-0.2-1.9-0.9c0,0,0,0,0,0c0-1,0-1.9,0-2.9c1.4-1.4,3.4,0,5-1
		c1,0.9,2-0.1,3,0C22.3,6.6,25.1,5.9,24.2,8.6z"/>
	<path class="st35" d="M27.2,17.3c-0.4-1.3-1.8-2.7,0-4C28.2,14.6,29.3,16,27.2,17.3z"/>
	<path class="st34" d="M16.4,16.3c-2.1,0.4-3.2,1.8-2.1,3.7c0.8,1.5-0.8,1.4-0.8,2.2c-3.2-0.3-2.2-3.2-3-4.9c0.7-1.6,1.3-3.3,2-4.9
		c0.6-0.6,1.3-0.6,2-0.3C15,13.6,18,14,16.4,16.3z"/>
	<path class="st20" d="M14.4,12.4c-0.6,0-1.3,0-1.9,0c0.3-1,0.6-2,1-3c0.6,0.3,1.3,0.6,1.9,0.9c0,0.7,0,1.3,0,2
		C15.1,12.8,14.8,12.7,14.4,12.4z"/>
	<path class="st33" d="M14.4,12.4c0.3,0,0.6,0,1,0c1.3,0.9,2.3,0.3,3.3-0.7c1-1.1,1.6-0.6,1.7,0.7c-0.9,1.7-2.3,3-4,3.9
		C15.7,15,15.1,13.7,14.4,12.4z"/>
</g>
</svg>
